<svg xmlns="http://www.w3.org/2000/svg" version="1.1" xmlns:xlink="http://www.w3.org/1999/xlink" width="20" height="20" x="0" y="0" viewBox="0 0 24 24" style="enable-background:new 0 0 512 512" xml:space="preserve" class=""><g><g fill="#000"><path d="M5 3a1 1 0 0 1 1-1h12a1 1 0 1 1 0 2H6a1 1 0 0 1-1-1zM4 6a1 1 0 0 1 1-1h14a1 1 0 1 1 0 2H5a1 1 0 0 1-1-1zM5.72 8c-1.565 0-2.896 1.18-3.03 2.75l-.02.25h18.66l-.02-.25C21.175 9.18 19.844 8 18.28 8zM2.01 18.75 2.33 15h19.34l.32 3.75c.15 1.77-1.271 3.25-3.03 3.25H5.04c-1.759 0-3.18-1.48-3.03-3.25z" fill="#80899f" opacity="1" data-original="#000000" class=""></path></g></g></svg>