<svg xmlns="http://www.w3.org/2000/svg" xmlns:xlink="http://www.w3.org/1999/xlink" width="175.619" height="80.615" viewBox="0 0 175.619 80.615">
  <defs>
    <clipPath id="clip-path">
      <rect id="Rectangle_10331" data-name="Rectangle 10331" width="172.345" height="80.615" fill="#68788e"/>
    </clipPath>
  </defs>
  <g id="Groupe_7609" data-name="Groupe 7609" transform="translate(-184.996 -1075.385)">
    <g id="Groupe_7574" data-name="Groupe 7574" transform="translate(184.996 1075.385)">
      <g id="Groupe_7573" data-name="Groupe 7573" transform="translate(0.93 0)">
        <g id="Groupe_7572" data-name="Groupe 7572" clip-path="url(#clip-path)">
          <path id="Tracé_36229" data-name="Tracé 36229" d="M0,80.013c2.692-1.771,4.833-3.2,7-4.6,9.48-6.121,16.171-14.665,21.555-24.424,5.242-9.5,9.744-19.386,15.991-28.369C59.853.607,88.287-6.526,111.6,6.509c11.179,6.252,18.582,16.206,24.538,27.316,3.732,6.963,7.185,14.062,11.169,20.9a65.749,65.749,0,0,0,23.226,23.3c.721.439.231,2.427-.658,2.516a32.613,32.613,0,0,1-3.294.05Q86.49,80.6,6.4,80.582c-1.911,0-2.488.077-6.4.077" transform="translate(0 0)" fill="#68788e"/>
        </g>
      </g>
      <path id="Tracé_36230" data-name="Tracé 36230" d="M-3815.531-6177.854v.606h-.93Z" transform="translate(3816.461 6257.862)" fill="#68788e"/>
      <path id="Tracé_36231" data-name="Tracé 36231" d="M-3816.461-6177.854v3.521h5.65Z" transform="translate(3986.429 6254.948)" fill="#68788e"/>
    </g>
    <path id="fi-rr-plus-small" d="M27.035,15.561H19.386V7.912A1.912,1.912,0,0,0,17.474,6h0a1.912,1.912,0,0,0-1.912,1.912v7.649H7.912A1.912,1.912,0,0,0,6,17.474H6a1.912,1.912,0,0,0,1.912,1.912h7.649v7.649a1.912,1.912,0,0,0,1.912,1.912h0a1.912,1.912,0,0,0,1.912-1.912V19.386h7.649a1.912,1.912,0,0,0,1.912-1.912h0A1.912,1.912,0,0,0,27.035,15.561Z" transform="translate(254.624 1096.518)" fill="#fff" stroke="#fff" stroke-width="3"/>
  </g>
</svg>
