<svg id="Groupe_7156" data-name="Groupe 7156" xmlns="http://www.w3.org/2000/svg" xmlns:xlink="http://www.w3.org/1999/xlink" width="52.732" height="37" viewBox="0 0 52.732 37">
  <defs>
    <clipPath id="clip-path">
      <rect id="Rectangle_9960" data-name="Rectangle 9960" width="52.732" height="37" fill="#46bebe"/>
    </clipPath>
  </defs>
  <g id="Groupe_7155" data-name="Groupe 7155" clip-path="url(#clip-path)">
    <path id="Tracé_31342" data-name="Tracé 31342" d="M52.732,7.706A2.369,2.369,0,0,1,51.494,9.13a2.1,2.1,0,0,1-2.253-.389c-.9-.735-1.8-1.484-2.74-2.171a13.616,13.616,0,0,0-9.3-2.414,14.365,14.365,0,0,0-8.438,3.756c-1.346,1.141-2.706,2.272-4.121,3.324A17.235,17.235,0,0,1,14.03,14.514a18.274,18.274,0,0,1-12.375-4.9A4.738,4.738,0,0,1,0,7.706V6.883C.537,5.62,1.167,5.1,2.222,5.245a3.1,3.1,0,0,1,1.324.594C4.683,6.661,5.733,7.61,6.9,8.383A13.093,13.093,0,0,0,14.33,10.4a13.657,13.657,0,0,0,8.859-3.182c1.742-1.414,3.445-2.887,5.266-4.193A17.365,17.365,0,0,1,40.014.046a18.5,18.5,0,0,1,11.239,5,3.776,3.776,0,0,1,1.48,1.838Z" transform="translate(0 -0.001)" fill="#46bebe"/>
    <path id="Tracé_31343" data-name="Tracé 31343" d="M0,181.46a2.354,2.354,0,0,1,1.239-1.423,2.174,2.174,0,0,1,2.3.417,46.694,46.694,0,0,0,3.785,2.823,13.284,13.284,0,0,0,8.109,1.742,14.276,14.276,0,0,0,8.539-3.766c1.343-1.144,2.7-2.273,4.121-3.324A17.257,17.257,0,0,1,38.7,174.652a18.28,18.28,0,0,1,12.375,4.9,4.735,4.735,0,0,1,1.655,1.9v.822c-.534,1.262-1.166,1.78-2.223,1.638a3.1,3.1,0,0,1-1.323-.594c-1.137-.822-2.187-1.771-3.356-2.543a13.1,13.1,0,0,0-7.427-2.018,13.667,13.667,0,0,0-8.859,3.181c-1.77,1.434-3.5,2.929-5.352,4.25a17.3,17.3,0,0,1-11.42,2.93,18.478,18.478,0,0,1-11.29-5A3.782,3.782,0,0,1,0,182.283Z" transform="translate(0 -152.167)" fill="#46bebe"/>
    <path id="Tracé_31344" data-name="Tracé 31344" d="M52.732,95a.669.669,0,0,0-.081.126,2.055,2.055,0,0,1-3.42.942c-.838-.679-1.654-1.39-2.529-2.02-4.047-2.918-8.477-3.258-13.11-1.779a16,16,0,0,0-5.027,3.14c-1.663,1.344-3.324,2.7-5.085,3.911a14.837,14.837,0,0,1-7.129,2.413A18.234,18.234,0,0,1,6.286,100.1a25.04,25.04,0,0,1-5.621-4.03A4.59,4.59,0,0,1,0,95v-.822a.666.666,0,0,0,.081-.126,2.055,2.055,0,0,1,3.42-.942c.838.679,1.654,1.39,2.529,2.02,4.047,2.916,8.477,3.26,13.11,1.779a15.165,15.165,0,0,0,4.983-3.114c1.169-.979,2.328-1.972,3.538-2.9a17.643,17.643,0,0,1,12.112-3.53,17.439,17.439,0,0,1,10.008,3.828c.594.465,1.161.963,1.757,1.424a3.286,3.286,0,0,1,1.195,1.559Z" transform="translate(0 -76.087)" fill="#46bebe"/>
  </g>
</svg>
