<svg id="Groupe_11101" data-name="Groupe 11101" xmlns="http://www.w3.org/2000/svg" xmlns:xlink="http://www.w3.org/1999/xlink" width="17.002" height="17" viewBox="0 0 17.002 17">
  <defs>
    <clipPath id="clip-path">
      <rect id="Rectangle_13215" data-name="Rectangle 13215" width="17.002" height="17" fill="#56e090"/>
    </clipPath>
  </defs>
  <g id="Groupe_11100" data-name="Groupe 11100" clip-path="url(#clip-path)">
    <path id="Tracé_51750" data-name="Tracé 51750" d="M6.048,1.62C5.422,2.56,4.8,3.461,4.212,4.382a28.4,28.4,0,0,0-2.444,4.47,8.192,8.192,0,0,0-.511,1.66,4,4,0,0,0,.514,2.671,4.744,4.744,0,0,0,4.513,2.6,4.559,4.559,0,0,0,2.315-.7A1.4,1.4,0,0,1,9,14.884a.588.588,0,0,1,.661.36.6.6,0,0,1-.226.736,5.781,5.781,0,0,1-2.192.908A6.067,6.067,0,0,1,.127,12.206,5.376,5.376,0,0,1,.35,9.147,24.647,24.647,0,0,1,2.6,4.646c.9-1.482,1.873-2.916,2.9-4.31A.633.633,0,0,1,6.62.326a50.9,50.9,0,0,1,4.287,6.8,13.9,13.9,0,0,1,1.068,2.654c.057-.04.1-.069.144-.1a2.533,2.533,0,0,1,3.306.092,1.464,1.464,0,0,0,.971.409.606.606,0,1,1-.033,1.211,2.487,2.487,0,0,1-1.716-.693,1.251,1.251,0,0,0-1.226-.328,1.454,1.454,0,0,0-.594.311,2.584,2.584,0,0,1-3.558-.007,1.3,1.3,0,0,0-1.808.017,2.5,2.5,0,0,1-1.733.7.605.605,0,1,1-.035-1.21,1.468,1.468,0,0,0,.974-.4,2.526,2.526,0,0,1,3.405-.015,1.5,1.5,0,0,0,.749.388c-.09-.283-.161-.541-.253-.791A20.818,20.818,0,0,0,8.634,5.538c-.794-1.27-1.64-2.508-2.464-3.76-.027-.041-.06-.078-.121-.158" transform="translate(0.001 0.001)" fill="#56e090"/>
    <path id="Tracé_51751" data-name="Tracé 51751" d="M103.7,228.909a2.548,2.548,0,0,1,1.717.654,1.34,1.34,0,0,0,1.938.007,2.535,2.535,0,0,1,3.436.019,1.417,1.417,0,0,0,.94.39.607.607,0,1,1-.034,1.212,2.441,2.441,0,0,1-1.628-.626,1.356,1.356,0,0,0-2-.012,2.54,2.54,0,0,1-3.393-.024,1.335,1.335,0,0,0-1.924,0,2.477,2.477,0,0,1-1.672.66.607.607,0,1,1-.025-1.213,1.377,1.377,0,0,0,.924-.381,2.526,2.526,0,0,1,1.718-.688" transform="translate(-95.347 -217.3)" fill="#56e090"/>
  </g>
</svg>
