<svg xmlns="http://www.w3.org/2000/svg" width="170.883" height="80.659" viewBox="0 0 170.883 80.659">
  <g id="Groupe_8821" data-name="Groupe 8821" transform="translate(-172 -1035.386)">
    <path id="Tracé_36229" data-name="Tracé 36229" d="M0,80.013c2.692-1.771,4.833-3.2,7-4.6,9.48-6.121,16.171-14.665,21.555-24.424,5.242-9.5,9.744-19.386,15.991-28.369C59.853.607,88.287-6.526,111.6,6.509c11.179,6.252,18.582,16.206,24.538,27.316,3.732,6.963,7.185,14.062,11.169,20.9a65.749,65.749,0,0,0,23.226,23.3c.721.439.231,2.427-.658,2.516a32.613,32.613,0,0,1-3.294.05Q86.49,80.6,6.4,80.582c-1.911,0-2.488.077-6.4.077" transform="translate(172 1035.387)" fill="#383838" opacity="0.595"/>
    <path id="fi-rr-plus-small" d="M27.035,15.561H19.386V7.912A1.912,1.912,0,0,0,17.474,6h0a1.912,1.912,0,0,0-1.912,1.912v7.649H7.912A1.912,1.912,0,0,0,6,17.474H6a1.912,1.912,0,0,0,1.912,1.912h7.649v7.649a1.912,1.912,0,0,0,1.912,1.912h0a1.912,1.912,0,0,0,1.912-1.912V19.386h7.649a1.912,1.912,0,0,0,1.912-1.912h0A1.912,1.912,0,0,0,27.035,15.561Z" transform="translate(240.699 1056.518)" fill="#fff" stroke="#fff" stroke-width="2.5"/>
  </g>
</svg>
