<?xml version="1.0" encoding="UTF-8"?><svg id="Calque_1" xmlns="http://www.w3.org/2000/svg" xmlns:xlink="http://www.w3.org/1999/xlink" viewBox="0 0 1923.56 850.72"><defs><clipPath id="clippath"><rect width="1923.56" height="850.72" style="fill:none;"/></clipPath><clipPath id="clippath-1"><rect x="-257.18" y="-349.87" width="2431.33" height="1725.46" style="fill:none;"/></clipPath></defs><g style="clip-path:url(#clippath);"><line x1="3.46" y1="736.96" x2="1876.68" y2="736.96" style="fill:none; stroke:#fff; stroke-linecap:round; stroke-miterlimit:10; stroke-width:6.92px;"/><line x1="360.96" y1="778.09" x2="609.17" y2="778.09" style="fill:none; stroke:#fff; stroke-linecap:round; stroke-miterlimit:10; stroke-width:6.92px;"/><line x1="328.67" y1="778.09" x2="338.72" y2="778.09" style="fill:none; stroke:#fff; stroke-linecap:round; stroke-miterlimit:10; stroke-width:6.92px;"/><line x1="284.2" y1="778.09" x2="308.41" y2="778.09" style="fill:none; stroke:#fff; stroke-linecap:round; stroke-miterlimit:10; stroke-width:6.92px;"/><line x1="160.5" y1="778.09" x2="284.2" y2="778.09" style="fill:none; stroke:#fff; stroke-linecap:round; stroke-miterlimit:10; stroke-width:6.92px;"/><line x1="1205.32" y1="778.09" x2="1242.93" y2="778.09" style="fill:none; stroke:#fff; stroke-linecap:round; stroke-miterlimit:10; stroke-width:6.92px;"/><line x1="1172.88" y1="778.09" x2="1185.52" y2="778.09" style="fill:none; stroke:#fff; stroke-linecap:round; stroke-miterlimit:10; stroke-width:6.92px;"/><line x1="1133.36" y1="778.09" x2="1151.76" y2="778.09" style="fill:none; stroke:#fff; stroke-linecap:round; stroke-miterlimit:10; stroke-width:6.92px;"/><line x1="794.25" y1="778.09" x2="1114.65" y2="778.09" style="fill:none; stroke:#fff; stroke-linecap:round; stroke-miterlimit:10; stroke-width:6.92px;"/><line x1="569.91" y1="836.04" x2="891.46" y2="836.04" style="fill:none; stroke:#fff; stroke-linecap:round; stroke-miterlimit:10; stroke-width:6.92px;"/><line x1="1671.04" y1="778.09" x2="1831.81" y2="778.09" style="fill:none; stroke:#fff; stroke-linecap:round; stroke-miterlimit:10; stroke-width:6.92px;"/><line x1="1510.26" y1="847.26" x2="1601.87" y2="847.26" style="fill:none; stroke:#fff; stroke-linecap:round; stroke-miterlimit:10; stroke-width:6.92px;"/><line x1="1620.38" y1="847.26" x2="1634.36" y2="847.26" style="fill:none; stroke:#fff; stroke-linecap:round; stroke-miterlimit:10; stroke-width:6.92px;"/><polyline points="1700.92 736.96 1700.92 685.73 1653.54 685.73 1653.54 736.96" style="fill:none; stroke:#fff; stroke-linejoin:round; stroke-width:6.92px;"/><line x1="1798.39" y1="719.04" x2="1798.39" y2="736.96" style="fill:none; stroke:#fff; stroke-linecap:round; stroke-linejoin:round; stroke-width:6.92px;"/><line x1="1798.39" y1="687.32" x2="1798.39" y2="702.28" style="fill:none; stroke:#fff; stroke-linecap:round; stroke-linejoin:round; stroke-width:6.92px;"/><polyline points="1556.07 736.96 1556.07 504.44 1798.39 499.26 1798.39 669.12" style="fill:none; stroke:#fff; stroke-linecap:round; stroke-linejoin:round; stroke-width:6.92px;"/><polyline points="1798.39 499.26 1866.92 568.87 1866.92 651.11" style="fill:none; stroke:#fff; stroke-linecap:round; stroke-linejoin:round; stroke-width:6.92px;"/><rect x="1592.15" y="538.33" width="20.96" height="35.11" style="fill:none; stroke:#fff; stroke-linecap:round; stroke-linejoin:round; stroke-width:6.92px;"/><rect x="1592.15" y="618.11" width="20.96" height="35.11" style="fill:none; stroke:#fff; stroke-linecap:round; stroke-linejoin:round; stroke-width:6.92px;"/><rect x="1665.92" y="538.33" width="20.96" height="35.11" style="fill:none; stroke:#fff; stroke-linecap:round; stroke-linejoin:round; stroke-width:6.92px;"/><rect x="1665.92" y="618.11" width="20.96" height="35.11" style="fill:none; stroke:#fff; stroke-linecap:round; stroke-linejoin:round; stroke-width:6.92px;"/><rect x="1739.94" y="538.33" width="20.96" height="35.11" style="fill:none; stroke:#fff; stroke-linecap:round; stroke-linejoin:round; stroke-width:6.92px;"/><rect x="1739.94" y="618.11" width="20.96" height="35.11" style="fill:none; stroke:#fff; stroke-linecap:round; stroke-linejoin:round; stroke-width:6.92px;"/><polyline points="1503.68 736.96 1503.68 462.24 1503.68 344.98" style="fill:none; stroke:#fff; stroke-linecap:round; stroke-miterlimit:10; stroke-width:6.92px;"/><g style="clip-path:url(#clippath-1);"><path d="m1474.9,302.52c2.7-10.01,6.47-19.7,11.26-28.89" style="fill:none; stroke:#fff; stroke-linecap:round; stroke-miterlimit:10; stroke-width:6.92px;"/><path d="m1468.55,326.81c.89-4.47,1.85-8.81,2.86-13" style="fill:none; stroke:#fff; stroke-linecap:round; stroke-miterlimit:10; stroke-width:6.92px;"/><path d="m1493.67,262.96c2.92-3.53,6.28-6.66,10-9.32,35.62-25.07,50.69,122.68,50.41,190s-23.3,84.72-50.38,85.72c-2.24-.23-4.44-.66-6.6-1.3-14.72-4.08-48.43-20.72-42.21-87.08,3.4-36.26,6.31-71.3,11.35-101.47" style="fill:none; stroke:#fff; stroke-linecap:round; stroke-miterlimit:10; stroke-width:6.92px;"/><line x1="1505.28" y1="493.71" x2="1522.65" y2="486.62" style="fill:none; stroke:#fff; stroke-linecap:round; stroke-miterlimit:10; stroke-width:5.53px;"/><line x1="1506.41" y1="395.62" x2="1521.52" y2="384.52" style="fill:none; stroke:#fff; stroke-linecap:round; stroke-miterlimit:10; stroke-width:5.53px;"/><line x1="1501.91" y1="469.85" x2="1481.82" y2="450.68" style="fill:none; stroke:#fff; stroke-linecap:round; stroke-miterlimit:10; stroke-width:5.53px;"/><polyline points="1448.03 733.5 1448.03 585.96 1448.03 523" style="fill:none; stroke:#fff; stroke-linecap:round; stroke-miterlimit:10; stroke-width:4.15px;"/><path d="m1474.96,565.36c.12,3.8.17,7.36.15,10.57-.15,36.13-12.51,45.5-27.07,46-1.2-.13-2.38-.36-3.54-.7-7.91-2.19-26-11.13-22.67-46.76,3.84-41,6.53-79,21.12-95.94" style="fill:none; stroke:#fff; stroke-linecap:round; stroke-miterlimit:10; stroke-width:4.15px;"/><path d="m1474.29,555.88c-.16-4.45-.39-9.13-.68-13.9,0,0-1.34-14.21-1.57-14.26" style="fill:none; stroke:#fff; stroke-linecap:round; stroke-miterlimit:10; stroke-width:4.15px;"/><line x1="1448.89" y1="602.86" x2="1458.22" y2="599.06" style="fill:none; stroke:#fff; stroke-linecap:round; stroke-miterlimit:10; stroke-width:4.15px;"/><line x1="1449.5" y1="550.19" x2="1457.61" y2="544.23" style="fill:none; stroke:#fff; stroke-linecap:round; stroke-miterlimit:10; stroke-width:4.15px;"/><line x1="1447.08" y1="590.05" x2="1436.29" y2="579.76" style="fill:none; stroke:#fff; stroke-linecap:round; stroke-miterlimit:10; stroke-width:4.15px;"/><polyline points="53 733.5 53 585.96 53 523" style="fill:none; stroke:#fff; stroke-linecap:round; stroke-miterlimit:10; stroke-width:4.15px;"/><path d="m53.01,622c-1.2-.13-2.39-.36-3.55-.7-7.9-2.19-26-11.13-22.66-46.76,4.25-45.34,7.08-87.14,26.21-100.6s27.22,65.88,27.07,102-12.51,45.51-27.07,46.06h0Z" style="fill:none; stroke:#fff; stroke-linecap:round; stroke-miterlimit:10; stroke-width:4.15px;"/><line x1="53.86" y1="602.86" x2="63.18" y2="599.06" style="fill:none; stroke:#fff; stroke-linecap:round; stroke-miterlimit:10; stroke-width:4.15px;"/><line x1="54.46" y1="550.19" x2="62.58" y2="544.23" style="fill:none; stroke:#fff; stroke-linecap:round; stroke-miterlimit:10; stroke-width:4.15px;"/><line x1="52.05" y1="590.05" x2="41.26" y2="579.76" style="fill:none; stroke:#fff; stroke-linecap:round; stroke-miterlimit:10; stroke-width:4.15px;"/><polyline points="1093.84 582.1 1093.84 503.9 1093.84 440.94" style="fill:none; stroke:#fff; stroke-linecap:round; stroke-miterlimit:10; stroke-width:4.15px;"/><path d="m1093.85,539.94c-1.2-.12-2.39-.36-3.55-.69-7.9-2.2-26-11.14-22.67-46.77,4.26-45.34,7.09-87.14,26.22-100.6s27.22,65.88,27.07,102-12.51,45.48-27.07,46.06h0Z" style="fill:none; stroke:#fff; stroke-linecap:round; stroke-miterlimit:10; stroke-width:4.15px;"/><line x1="1094.7" y1="520.8" x2="1104.02" y2="517" style="fill:none; stroke:#fff; stroke-linecap:round; stroke-miterlimit:10; stroke-width:4.15px;"/><line x1="1095.3" y1="468.13" x2="1103.42" y2="462.17" style="fill:none; stroke:#fff; stroke-linecap:round; stroke-miterlimit:10; stroke-width:4.15px;"/><line x1="1092.88" y1="507.99" x2="1082.1" y2="497.7" style="fill:none; stroke:#fff; stroke-linecap:round; stroke-miterlimit:10; stroke-width:4.15px;"/><polyline points="285.92 595.71 285.92 736.96 312.42 736.96 295.06 370.57 285.92 370.57 285.92 520.36" style="fill:none; stroke:#fff; stroke-linecap:round; stroke-linejoin:round; stroke-width:5.53px;"/><line x1="285.92" y1="569.99" x2="285.92" y2="583.41" style="fill:none; stroke:#fff; stroke-linecap:round; stroke-linejoin:round; stroke-width:5.53px;"/><line x1="285.92" y1="533.92" x2="285.92" y2="556.23" style="fill:none; stroke:#fff; stroke-linecap:round; stroke-linejoin:round; stroke-width:5.53px;"/><path d="m274.96,365.54c0-8.58,6.96-15.54,15.54-15.54s15.54,6.96,15.54,15.54-6.96,15.54-15.54,15.54h-.01c-8.58,0-15.53-6.95-15.53-15.53h0" style="fill:#fff;"/><path d="m298.95,362.56l109.9,68.8s-30.77,21.09-118.85-57.5" style="fill:none; stroke:#fff; stroke-linejoin:round; stroke-width:5.53px;"/><path d="m282.78,355.55l-3.43-129.61s34.58,14,17.79,130.82" style="fill:none; stroke:#fff; stroke-linejoin:round; stroke-width:5.53px;"/><path d="m287.58,374.46l-98.36,84.48s-11-35.65,90.24-96.38" style="fill:none; stroke:#fff; stroke-linejoin:round; stroke-width:5.53px;"/><path d="m236.44,366.76v-1.22c-.02-19.51,10.49-37.51,27.49-47.09" style="fill:none; stroke:#fff; stroke-linecap:round; stroke-linejoin:round; stroke-width:4.15px;"/><path d="m273.26,419.46c-4.6-1.26-9.01-3.13-13.11-5.56" style="fill:none; stroke:#fff; stroke-linecap:round; stroke-linejoin:round; stroke-width:4.15px;"/><path d="m323.52,413.54c-4.08,2.68-8.5,4.79-13.15,6.28" style="fill:none; stroke:#fff; stroke-linecap:round; stroke-linejoin:round; stroke-width:4.15px;"/><path d="m316.95,318.36c17.07,9.56,27.63,27.6,27.61,47.16,0,2.03-.12,4.07-.34,6.09" style="fill:none; stroke:#fff; stroke-linecap:round; stroke-linejoin:round; stroke-width:4.15px;"/><path d="m201.85,365.54c0-35.45,21.12-67.5,53.7-81.48" style="fill:none; stroke:#fff; stroke-linecap:round; stroke-linejoin:round; stroke-width:4.15px;"/><path d="m268.57,451.45c-12.65-3.22-24.42-9.21-34.48-17.52" style="fill:none; stroke:#fff; stroke-linecap:round; stroke-linejoin:round; stroke-width:4.15px;"/><path d="m349.43,431.75c-10.57,9.44-23.26,16.2-37,19.7" style="fill:none; stroke:#fff; stroke-linecap:round; stroke-linejoin:round; stroke-width:4.15px;"/><path d="m323.78,283.36c39.6,16.09,62.11,58.12,53.57,100" style="fill:none; stroke:#fff; stroke-linecap:round; stroke-linejoin:round; stroke-width:4.15px;"/><path d="m204.18,686.51l-6.28-132.59h-4.92v182.76c4.53.43,9.07.67,13.62.86l-.88-18.58" style="fill:none; stroke:#fff; stroke-linecap:round; stroke-linejoin:round; stroke-width:4.15px;"/><line x1="204.82" y1="699.44" x2="204.56" y2="693.95" style="fill:none; stroke:#fff; stroke-linecap:round; stroke-linejoin:round; stroke-width:4.15px;"/><line x1="205.36" y1="712.7" x2="205.06" y2="707.14" style="fill:none; stroke:#fff; stroke-linecap:round; stroke-linejoin:round; stroke-width:4.15px;"/><path d="m187.08,551.22c0-4.62,3.74-8.36,8.36-8.36s8.36,3.74,8.36,8.36-3.74,8.36-8.36,8.36h0c-4.62,0-8.36-3.74-8.36-8.36" style="fill:#fff;"/><path d="m199.99,549.62l59.12,37s-16.55,11.35-63.93-30.93" style="fill:none; stroke:#fff; stroke-linejoin:round; stroke-width:4.15px;"/><path d="m191.27,545.84l-1.85-69.73s18.6,7.53,9.57,70.38" style="fill:none; stroke:#fff; stroke-linejoin:round; stroke-width:4.15px;"/><path d="m193.87,556.02l-52.91,45.45s-5.91-19.18,48.54-51.85" style="fill:none; stroke:#fff; stroke-linejoin:round; stroke-width:4.15px;"/><path d="m166.36,551.88v-.66c0-10.49,5.65-20.18,14.79-25.33" style="fill:none; stroke:#fff; stroke-linecap:round; stroke-linejoin:round; stroke-width:2.77px;"/><path d="m186.17,580.23c-2.47-.68-4.84-1.69-7.05-3" style="fill:none; stroke:#fff; stroke-linecap:round; stroke-linejoin:round; stroke-width:2.77px;"/><path d="m213.21,577.04c-2.2,1.44-4.58,2.58-7.08,3.38" style="fill:none; stroke:#fff; stroke-linecap:round; stroke-linejoin:round; stroke-width:2.77px;"/><path d="m209.67,525.85c9.18,5.14,14.86,14.85,14.86,25.37,0,1.1-.06,2.19-.19,3.28" style="fill:none; stroke:#fff; stroke-linecap:round; stroke-linejoin:round; stroke-width:2.77px;"/><path d="m147.78,551.22c0-19.07,11.34-36.32,28.86-43.86" style="fill:none; stroke:#fff; stroke-linecap:round; stroke-linejoin:round; stroke-width:2.77px;"/><path d="m183.64,597.44c-6.8-1.74-13.13-4.96-18.54-9.43" style="fill:none; stroke:#fff; stroke-linecap:round; stroke-linejoin:round; stroke-width:2.77px;"/><path d="m227.15,586.84c-5.69,5.07-12.52,8.71-19.91,10.6" style="fill:none; stroke:#fff; stroke-linecap:round; stroke-linejoin:round; stroke-width:2.77px;"/><path d="m213.34,507.01c18.01,7.29,29.8,24.78,29.79,44.21,0,3.23-.35,6.45-1,9.61" style="fill:none; stroke:#fff; stroke-linecap:round; stroke-linejoin:round; stroke-width:2.77px;"/><line x1="483.41" y1="356.25" x2="483.41" y2="317.25" style="fill:none; stroke:#fff; stroke-linecap:round; stroke-linejoin:round; stroke-width:6.92px;"/><line x1="483.41" y1="383.81" x2="483.41" y2="374.21" style="fill:none; stroke:#fff; stroke-linecap:round; stroke-linejoin:round; stroke-width:6.92px;"/><line x1="483.41" y1="732.69" x2="483.41" y2="399.19" style="fill:none; stroke:#fff; stroke-linecap:round; stroke-linejoin:round; stroke-width:6.92px;"/><line x1="717.09" y1="714.8" x2="717.09" y2="732.69" style="fill:none; stroke:#fff; stroke-linecap:round; stroke-linejoin:round; stroke-width:6.92px;"/><line x1="717.09" y1="691.65" x2="717.09" y2="702.77" style="fill:none; stroke:#fff; stroke-linecap:round; stroke-linejoin:round; stroke-width:6.92px;"/><line x1="717.09" y1="650.83" x2="717.09" y2="678.06" style="fill:none; stroke:#fff; stroke-linecap:round; stroke-linejoin:round; stroke-width:6.92px;"/><polyline points="483.41 302.48 483.41 194.28 717.09 194.28 717.09 637.39" style="fill:none; stroke:#fff; stroke-linecap:round; stroke-linejoin:round; stroke-width:6.92px;"/><line x1="521.28" y1="229.8" x2="521.28" y2="609.3" style="fill:none; stroke:#fff; stroke-linecap:round; stroke-miterlimit:10; stroke-width:6.92px;"/><line x1="553.55" y1="229.8" x2="553.55" y2="609.3" style="fill:none; stroke:#fff; stroke-linecap:round; stroke-miterlimit:10; stroke-width:6.92px;"/><line x1="587.2" y1="229.8" x2="587.2" y2="609.3" style="fill:none; stroke:#fff; stroke-linecap:round; stroke-miterlimit:10; stroke-width:6.92px;"/><line x1="618.98" y1="229.8" x2="618.98" y2="609.3" style="fill:none; stroke:#fff; stroke-linecap:round; stroke-miterlimit:10; stroke-width:6.92px;"/><line x1="648.48" y1="229.8" x2="648.48" y2="609.3" style="fill:none; stroke:#fff; stroke-linecap:round; stroke-miterlimit:10; stroke-width:6.92px;"/><line x1="679.55" y1="229.8" x2="679.55" y2="609.3" style="fill:none; stroke:#fff; stroke-linecap:round; stroke-miterlimit:10; stroke-width:6.92px;"/><polyline points="632.67 732.69 632.67 660.54 565.96 660.54 565.96 732.69" style="fill:none; stroke:#fff; stroke-linejoin:round; stroke-width:6.92px;"/><polyline points="483.41 194.28 400.1 260.29 400.1 666.34" style="fill:none; stroke:#fff; stroke-linecap:round; stroke-linejoin:round; stroke-width:6.92px;"/><line x1="627.6" y1="192.37" x2="627.6" y2="164.85" style="fill:none; stroke:#fff; stroke-linejoin:round; stroke-width:5.53px;"/><line x1="644.54" y1="191.11" x2="644.54" y2="115.24" style="fill:none; stroke:#fff; stroke-linejoin:round; stroke-width:5.53px;"/><line x1="545.62" y1="194.28" x2="545.62" y2="169.81" style="fill:none; stroke:#fff; stroke-linejoin:round; stroke-width:5.53px;"/><polygon points="634.86 166.8 542.03 166.8 556.01 96 648.48 95.11 634.86 166.8" style="fill:none; stroke:#fff; stroke-linejoin:round; stroke-width:5.53px;"/><line x1="560.74" y1="166.8" x2="575.13" y2="95.83" style="fill:none; stroke:#fff; stroke-miterlimit:10; stroke-width:4.15px;"/><line x1="577.67" y1="166.8" x2="592.06" y2="95.83" style="fill:none; stroke:#fff; stroke-miterlimit:10; stroke-width:4.15px;"/><line x1="595.77" y1="168.56" x2="610.16" y2="97.59" style="fill:none; stroke:#fff; stroke-miterlimit:10; stroke-width:4.15px;"/><line x1="615.12" y1="166.44" x2="629.51" y2="95.47" style="fill:none; stroke:#fff; stroke-miterlimit:10; stroke-width:4.15px;"/><line x1="552.08" y1="113.47" x2="644.54" y2="113.47" style="fill:none; stroke:#fff; stroke-miterlimit:10; stroke-width:4.15px;"/><line x1="548.12" y1="132.21" x2="640.58" y2="132.21" style="fill:none; stroke:#fff; stroke-miterlimit:10; stroke-width:4.15px;"/><line x1="546.59" y1="149.72" x2="639.05" y2="149.72" style="fill:none; stroke:#fff; stroke-miterlimit:10; stroke-width:4.15px;"/><line x1="1175.97" y1="333.38" x2="1261.07" y2="333.38" style="fill:none; stroke:#fff; stroke-linecap:round; stroke-linejoin:round; stroke-width:6.92px;"/><line x1="1218.52" y1="297.77" x2="1303.62" y2="297.77" style="fill:none; stroke:#fff; stroke-linecap:round; stroke-linejoin:round; stroke-width:6.92px;"/><line x1="1835.32" y1="490.16" x2="1866.93" y2="490.16" style="fill:none; stroke:#fff; stroke-linecap:round; stroke-linejoin:round; stroke-width:6.92px;"/><line x1="1319.53" y1="297.77" x2="1335.33" y2="297.77" style="fill:none; stroke:#fff; stroke-linecap:round; stroke-linejoin:round; stroke-width:6.92px;"/><line x1="141.42" y1="204.71" x2="206.07" y2="204.71" style="fill:none; stroke:#fff; stroke-linecap:round; stroke-linejoin:round; stroke-width:6.92px;"/><line x1="26.39" y1="374.57" x2="111.49" y2="374.57" style="fill:none; stroke:#fff; stroke-linecap:round; stroke-linejoin:round; stroke-width:6.92px;"/><line x1="68.94" y1="338.95" x2="154.04" y2="338.95" style="fill:none; stroke:#fff; stroke-linecap:round; stroke-linejoin:round; stroke-width:6.92px;"/><polyline points="921.37 273.63 924.26 273.63 937.05 273.63" style="fill:none; stroke:#fff; stroke-linecap:round; stroke-linejoin:round; stroke-width:5.53px;"/><line x1="904.91" y1="273.63" x2="910" y2="273.63" style="fill:none; stroke:#fff; stroke-linecap:round; stroke-linejoin:round; stroke-width:5.53px;"/><path d="m949.13,273.63h0s13.58-.88,11.53-16.36c0,0-4.67-16.64-24.82-5.25,0,0,4.53-16.21-12.85-21.9,0,0-15.91-3.51-22,3.79,0,0-13.72-29.93-42.05-17.37,0,0-9.34-24.67-38.54-21.32,0,0-28,1.32-34.9,25.55,0,0-7.88,35.92,18.4,47.89,0,0,13,5,22.05,5h67.57" style="fill:none; stroke:#fff; stroke-linecap:round; stroke-linejoin:round; stroke-width:5.53px;"/><path d="m208.24,170.04c-2.27,5-4.61,7.43-10.86,10.27,0,0-10.25,3.92-17.39,3.92h-97.21s-10.71-.69-9.1-12.9c0,0,3.69-13.14,19.58-4.15,0,0-3.57-12.79,10.14-17.28,0,0,12.56-2.77,17.4,3,0,0,10.83-23.62,33.18-13.71,0,0,7.37-19.47,30.42-16.82,0,0,14.6.69,23,11.2" style="fill:none; stroke:#fff; stroke-linecap:round; stroke-linejoin:round; stroke-width:5.53px;"/><path d="m211.54,149.36c.22,2.57.22,5.14,0,7.71" style="fill:none; stroke:#fff; stroke-linecap:round; stroke-linejoin:round; stroke-width:5.53px;"/><polyline points="1354.5 736.96 1354.5 664.82 1300.36 664.82 1300.36 736.96" style="fill:none; stroke:#fff; stroke-linejoin:round; stroke-width:6.92px;"/><polyline points="1369.28 592.6 1391.51 592.6 1391.51 736.96" style="fill:none; stroke:#fff; stroke-linecap:round; stroke-linejoin:round; stroke-width:6.92px;"/><line x1="1349.9" y1="592.6" x2="1357.36" y2="592.6" style="fill:none; stroke:#fff; stroke-linecap:round; stroke-linejoin:round; stroke-width:6.92px;"/><line x1="1324.12" y1="592.6" x2="1337.94" y2="592.6" style="fill:none; stroke:#fff; stroke-linecap:round; stroke-linejoin:round; stroke-width:6.92px;"/><polyline points="1209.21 736.96 1209.21 592.6 1310.53 592.6" style="fill:none; stroke:#fff; stroke-linecap:round; stroke-linejoin:round; stroke-width:6.92px;"/><polyline points="1122.35 549.25 1150.11 517.08 1209.21 592.6" style="fill:none; stroke:#fff; stroke-linecap:round; stroke-linejoin:round; stroke-width:6.92px;"/><line x1="1106.53" y1="566.8" x2="1112.34" y2="560.07" style="fill:none; stroke:#fff; stroke-linecap:round; stroke-linejoin:round; stroke-width:6.92px;"/><polyline points="1084.93 675.55 1084.93 592.6 1097.48 578.06" style="fill:none; stroke:#fff; stroke-linecap:round; stroke-linejoin:round; stroke-width:6.92px;"/><polyline points="1391.51 592.6 1340.8 514.34 1150.11 517.09" style="fill:none; stroke:#fff; stroke-linejoin:round; stroke-width:6.92px;"/><rect x="1112.34" y="611.91" width="21.02" height="30.22" style="fill:none; stroke:#fff; stroke-linejoin:round; stroke-width:6.92px;"/><rect x="1160.78" y="611.91" width="21.02" height="30.22" style="fill:none; stroke:#fff; stroke-linejoin:round; stroke-width:6.92px;"/><rect x="1245.47" y="673.59" width="21.02" height="30.22" style="fill:none; stroke:#fff; stroke-linejoin:round; stroke-width:6.92px;"/><rect x="1112.34" y="665.61" width="21.02" height="30.22" style="fill:none; stroke:#fff; stroke-linejoin:round; stroke-width:6.92px;"/><rect x="1160.78" y="665.61" width="21.02" height="30.22" style="fill:none; stroke:#fff; stroke-linejoin:round; stroke-width:6.92px;"/><line x1="1226.39" y1="515.43" x2="1226.39" y2="487.91" style="fill:none; stroke:#fff; stroke-linejoin:round; stroke-width:5.53px;"/><line x1="1209.02" y1="514.17" x2="1209.02" y2="438.3" style="fill:none; stroke:#fff; stroke-linejoin:round; stroke-width:5.53px;"/><line x1="1308.37" y1="517.34" x2="1308.37" y2="492.88" style="fill:none; stroke:#fff; stroke-linejoin:round; stroke-width:5.53px;"/><polygon points="1219.12 489.86 1311.96 489.86 1297.98 419.06 1205.5 418.17 1219.12 489.86" style="fill:none; stroke:#fff; stroke-linejoin:round; stroke-width:5.53px;"/><line x1="1293.55" y1="489.5" x2="1279.16" y2="418.53" style="fill:none; stroke:#fff; stroke-miterlimit:10; stroke-width:4.15px;"/><line x1="1276.63" y1="489.5" x2="1262.24" y2="418.53" style="fill:none; stroke:#fff; stroke-miterlimit:10; stroke-width:4.15px;"/><line x1="1258.52" y1="491.26" x2="1244.13" y2="420.29" style="fill:none; stroke:#fff; stroke-miterlimit:10; stroke-width:4.15px;"/><line x1="1239.17" y1="489.14" x2="1224.78" y2="418.17" style="fill:none; stroke:#fff; stroke-miterlimit:10; stroke-width:4.15px;"/><line x1="1302.21" y1="436.18" x2="1209.76" y2="436.18" style="fill:none; stroke:#fff; stroke-miterlimit:10; stroke-width:4.15px;"/><line x1="1306.17" y1="454.91" x2="1213.72" y2="454.91" style="fill:none; stroke:#fff; stroke-miterlimit:10; stroke-width:4.15px;"/><line x1="1307.7" y1="472.42" x2="1215.25" y2="472.42" style="fill:none; stroke:#fff; stroke-miterlimit:10; stroke-width:4.15px;"/><line x1="1193.28" y1="517.08" x2="1251.33" y2="592.6" style="fill:none; stroke:#fff; stroke-miterlimit:10; stroke-width:6.92px;"/><line x1="1244.13" y1="517.08" x2="1302.18" y2="592.6" style="fill:none; stroke:#fff; stroke-miterlimit:10; stroke-width:6.92px;"/><line x1="1296.46" y1="517.08" x2="1354.5" y2="592.6" style="fill:none; stroke:#fff; stroke-miterlimit:10; stroke-width:6.92px;"/><polyline points="930.05 564.91 930.05 545.07 1047.62 545.07 1047.62 685.25" style="fill:none; stroke:#fff; stroke-linecap:round; stroke-linejoin:round; stroke-width:6.92px;"/><line x1="930.05" y1="609.38" x2="930.05" y2="581.36" style="fill:none; stroke:#fff; stroke-linecap:round; stroke-linejoin:round; stroke-width:6.92px;"/><line x1="930.05" y1="635.12" x2="930.05" y2="625.22" style="fill:none; stroke:#fff; stroke-linecap:round; stroke-linejoin:round; stroke-width:6.92px;"/><line x1="930.05" y1="733.5" x2="930.05" y2="652.48" style="fill:none; stroke:#fff; stroke-linecap:round; stroke-linejoin:round; stroke-width:6.92px;"/><polyline points="930.05 545.07 891.46 545.07 891.46 504.44 753.9 504.44 753.9 736.96" style="fill:none; stroke:#fff; stroke-linejoin:round; stroke-width:6.92px;"/><polyline points="822.74 410.75 810.25 410.75 753.9 504.44" style="fill:none; stroke:#fff; stroke-linecap:round; stroke-linejoin:round; stroke-width:6.92px;"/><line x1="865.12" y1="410.75" x2="835.57" y2="410.75" style="fill:none; stroke:#fff; stroke-linecap:round; stroke-linejoin:round; stroke-width:6.92px;"/><line x1="888.99" y1="410.75" x2="878.94" y2="410.75" style="fill:none; stroke:#fff; stroke-linecap:round; stroke-linejoin:round; stroke-width:6.92px;"/><polyline points="1012.89 545.07 1012.89 504.44 956.45 410.75 903.15 410.75" style="fill:none; stroke:#fff; stroke-linecap:round; stroke-linejoin:round; stroke-width:6.92px;"/><line x1="891.46" y1="504.44" x2="956.45" y2="410.75" style="fill:none; stroke:#fff; stroke-miterlimit:10; stroke-width:6.92px;"/><rect x="954.45" y="573.13" width="22.11" height="41.61" style="fill:none; stroke:#fff; stroke-linejoin:round; stroke-width:5.53px;"/><rect x="1000.44" y="573.13" width="22.11" height="41.61" style="fill:none; stroke:#fff; stroke-linejoin:round; stroke-width:5.53px;"/><rect x="954.45" y="643.64" width="22.11" height="41.61" style="fill:none; stroke:#fff; stroke-linejoin:round; stroke-width:5.53px;"/><rect x="1000.44" y="643.64" width="22.11" height="41.61" style="fill:none; stroke:#fff; stroke-linejoin:round; stroke-width:5.53px;"/><line x1="787.71" y1="706.85" x2="787.71" y2="533.23" style="fill:none; stroke:#fff; stroke-linecap:round; stroke-linejoin:round; stroke-width:5.53px;"/><line x1="823.57" y1="706.85" x2="823.57" y2="533.23" style="fill:none; stroke:#fff; stroke-linecap:round; stroke-linejoin:round; stroke-width:5.53px;"/><line x1="861.42" y1="706.85" x2="861.42" y2="533.23" style="fill:none; stroke:#fff; stroke-linecap:round; stroke-linejoin:round; stroke-width:5.53px;"/><line x1="894.02" y1="706.85" x2="894.02" y2="568.87" style="fill:none; stroke:#fff; stroke-linecap:round; stroke-linejoin:round; stroke-width:5.53px;"/><path d="m1106.7,737.18s11.45-4.09,6.87-16.75c0,0-2.75-6.58-9.33-7,0,0,5.44-13.17-3.38-17.69,0,0-6.64-3.88-13.06.9,0,0-1.34-5.26-5.29-4.87s-5.76,3.19-5.84,6.58c0,0-14.43-7.94-18.21,4.46-.47,2.84-.12,5.76,1,8.42,0,0-9.36-3.35-15,3.22s-5.75,20,7.47,22.7,54.77.03,54.77.03h0Z" style="fill:none; stroke:#fff; stroke-linejoin:round; stroke-width:4.15px;"/><path d="m417.31,737.18s11.46-4.09,6.87-16.75c0,0-2.74-6.58-9.33-7,0,0,5.44-13.17-3.38-17.69,0,0-6.64-3.88-13.05.9,0,0-1.35-5.26-5.3-4.87s-5.75,3.19-5.84,6.58c0,0-14.43-7.94-18.21,4.46-.47,2.84-.12,5.76,1,8.42,0,0-9.36-3.35-15,3.22s-5.75,20,7.48,22.7,54.76.03,54.76.03h0Z" style="fill:none; stroke:#fff; stroke-linejoin:round; stroke-width:4.15px;"/><line x1="1732.59" y1="500.67" x2="1732.59" y2="216.13" style="fill:none; stroke:#fff; stroke-linecap:round; stroke-miterlimit:10; stroke-width:5.53px;"/><path d="m1674.48,171.96c1.32-1.36,2-2,3.39-3.25" style="fill:none; stroke:#fff; stroke-linecap:round; stroke-miterlimit:10; stroke-width:5.53px;"/><path d="m1708.5,151.36c43.32-13.33,89.24,10.97,102.57,54.29,13.33,43.32-10.97,89.24-54.29,102.57-43.32,13.33-89.24-10.97-102.57-54.29-7.94-25.81-2.68-53.87,14.07-75.05" style="fill:none; stroke:#fff; stroke-linecap:round; stroke-miterlimit:10; stroke-width:5.53px;"/><path d="m1685.41,162.71c4.59-3.3,9.56-6.03,14.81-8.13" style="fill:none; stroke:#fff; stroke-linecap:round; stroke-miterlimit:10; stroke-width:5.53px;"/><path d="m1814.06,396.47c-3.36.83-6.82,1.24-10.28,1.24-2.89,0-5.77-.29-8.6-.86" style="fill:none; stroke:#fff; stroke-linecap:round; stroke-miterlimit:10; stroke-width:5.53px;"/><path d="m1828.17,390.12c-1.72,1.19-3.53,2.24-5.4,3.17" style="fill:none; stroke:#fff; stroke-linecap:round; stroke-miterlimit:10; stroke-width:5.53px;"/><path d="m1785.78,393.75c-21.56-9.95-30.98-35.5-21.03-57.06s35.5-30.98,57.06-21.03,30.98,35.5,21.03,57.06c-2,4.33-4.71,8.3-8.01,11.75" style="fill:none; stroke:#fff; stroke-linecap:round; stroke-miterlimit:10; stroke-width:5.53px;"/><path d="m1677.53,411.08c4.98-1.43,10.29-1.29,15.19.41" style="fill:none; stroke:#fff; stroke-linecap:round; stroke-miterlimit:10; stroke-width:4.15px;"/><path d="m1664.64,419.84c1.88-2.43,4.18-4.49,6.8-6.09" style="fill:none; stroke:#fff; stroke-linecap:round; stroke-miterlimit:10; stroke-width:4.15px;"/><path d="m1699.78,415.36c10.94,8.47,12.95,24.21,4.47,35.16-8.47,10.94-24.21,12.95-35.16,4.47-8.86-6.86-12.09-18.77-7.91-29.17" style="fill:none; stroke:#fff; stroke-linecap:round; stroke-miterlimit:10; stroke-width:4.15px;"/><line x1="1732.59" y1="415.35" x2="1797.48" y2="361.43" style="fill:none; stroke:#fff; stroke-linecap:round; stroke-miterlimit:10; stroke-width:5.53px;"/><line x1="1732.59" y1="476.57" x2="1684.47" y2="435.16" style="fill:none; stroke:#fff; stroke-linecap:round; stroke-miterlimit:10; stroke-width:4.15px;"/><line x1="1606.77" y1="499.96" x2="1606.77" y2="447.56" style="fill:none; stroke:#fff; stroke-linecap:round; stroke-miterlimit:10; stroke-width:4.15px;"/><path d="m1600.35,447.56c0-3.55,2.87-6.42,6.42-6.42s6.42,2.87,6.42,6.42-2.87,6.42-6.42,6.42-6.41-2.86-6.42-6.4v-.02" style="fill:#fff;"/><path d="m1600.78,461.43c-7.65-3.31-11.16-12.2-7.85-19.85s12.2-11.16,19.85-7.85,11.16,12.2,7.85,19.85c-1.52,3.52-4.33,6.32-7.85,7.85" style="fill:none; stroke:#fff; stroke-linecap:round; stroke-miterlimit:10; stroke-width:2.77px;"/><path d="m1597.48,469.48c-11.92-5.15-17.4-18.99-12.25-30.91s18.99-17.4,30.91-12.25,17.4,18.99,12.25,30.91c-2.38,5.49-6.76,9.87-12.25,12.25" style="fill:none; stroke:#fff; stroke-linecap:round; stroke-miterlimit:10; stroke-width:2.77px;"/><line x1="954.45" y1="410.75" x2="954.45" y2="357.6" style="fill:none; stroke:#fff; stroke-linecap:round; stroke-miterlimit:10; stroke-width:4.15px;"/><path d="m948.04,357.6c0-3.55,2.87-6.42,6.42-6.42s6.42,2.87,6.42,6.42-2.87,6.42-6.42,6.42h-.01c-3.54,0-6.41-2.88-6.41-6.42" style="fill:#fff;"/><path d="m948.47,371.48c-7.65-3.31-11.17-12.2-7.86-19.86s12.2-11.17,19.86-7.86c7.65,3.31,11.17,12.2,7.86,19.86-1.53,3.52-4.33,6.33-7.86,7.86" style="fill:none; stroke:#fff; stroke-linecap:round; stroke-miterlimit:10; stroke-width:2.77px;"/><path d="m945.17,379.52c-11.91-5.15-17.39-18.99-12.24-30.9s18.99-17.39,30.9-12.24,17.39,18.99,12.24,30.9c-2.37,5.49-6.75,9.86-12.24,12.24" style="fill:none; stroke:#fff; stroke-linecap:round; stroke-miterlimit:10; stroke-width:2.77px;"/><circle cx="1876.86" cy="700.65" r="36.43" transform="translate(1044.77 2523.05) rotate(-85.93)" style="fill:none; stroke:#fff; stroke-miterlimit:10; stroke-width:6.92px;"/><circle cx="1400.08" cy="236.48" r="9.02" style="fill:none; stroke:#fff; stroke-miterlimit:10; stroke-width:2.77px;"/><circle cx="1786.16" cy="472.42" r="9.02" style="fill:none; stroke:#fff; stroke-miterlimit:10; stroke-width:2.77px;"/><circle cx="777.68" cy="344.98" r="9.02" style="fill:none; stroke:#fff; stroke-miterlimit:10; stroke-width:2.77px;"/><circle cx="379.13" cy="216.13" r="9.02" style="fill:none; stroke:#fff; stroke-miterlimit:10; stroke-width:2.77px;"/><polyline points="1158.1 185.27 1169.37 169.74 1180.79 185.27 1193.73 169.74 1204.38 185.27 1216.28 169.74 1228.46 185.27" style="fill:none; stroke:#fff; stroke-linecap:round; stroke-linejoin:round; stroke-width:4.15px;"/><polyline points="1158.1 163.86 1169.37 148.32 1180.79 163.86 1193.73 148.32 1204.38 163.86 1216.28 148.32 1228.46 163.86" style="fill:none; stroke:#fff; stroke-linecap:round; stroke-linejoin:round; stroke-width:4.15px;"/><polyline points="1851.12 442.85 1862.39 427.32 1873.81 442.85 1886.76 427.32 1897.41 442.85 1909.3 427.32 1921.48 442.85" style="fill:none; stroke:#fff; stroke-linecap:round; stroke-linejoin:round; stroke-width:4.15px;"/><polyline points="1851.12 421.44 1862.39 405.91 1873.81 421.44 1886.76 405.91 1897.41 421.44 1909.3 405.91 1921.48 421.44" style="fill:none; stroke:#fff; stroke-linecap:round; stroke-linejoin:round; stroke-width:4.15px;"/></g></g></svg>