<svg xmlns="http://www.w3.org/2000/svg" width="33.167" height="38.284" viewBox="0 0 33.167 38.284">
  <g id="Groupe_7605" data-name="Groupe 7605" transform="translate(20431.049 16563)">
    <g id="Ellipse_1144" data-name="Ellipse 1144" transform="translate(-20429.541 -16563)" fill="none" stroke="#c82773" stroke-width="2.5">
      <circle cx="15.093" cy="15.093" r="15.093" stroke="none"/>
      <circle cx="15.093" cy="15.093" r="13.843" fill="none"/>
    </g>
    <g id="Ellipse_1145" data-name="Ellipse 1145" transform="translate(-20421.441 -16554.9)" fill="none" stroke="#c82773" stroke-width="2">
      <circle cx="6.994" cy="6.994" r="6.994" stroke="none"/>
      <circle cx="6.994" cy="6.994" r="5.994" fill="none"/>
    </g>
    <circle id="Ellipse_1146" data-name="Ellipse 1146" cx="2.577" cy="2.577" r="2.577" transform="translate(-20417.023 -16550.484)" fill="#c82773"/>
    <g id="Tracé_31267" data-name="Tracé 31267" transform="translate(-20431 -16537.232)" fill="none">
      <path d="M6.613,0s6.279,2.47,9.946,2.47S26.492,0,26.492,0c1.349.037,2.419.6,3.681,2.945l2.945,6.626c0,1.626-.582,2.945-2.209,2.945H2.932c-1.626,0-3.244-.464-2.945-2.945L2.932,2.945C3.779,1.375,4.987,0,6.613,0Z" stroke="none"/>
      <path d="M 26.79293251037598 2.561256408691406 C 24.99334907531738 3.232830047607422 20.00413131713867 4.97044038772583 16.55978584289551 4.97044038772583 C 13.15042686462402 4.97044038772583 8.217325210571289 3.267611503601074 6.369922637939453 2.582216262817383 C 6.062889099121094 2.761420249938965 5.625997543334961 3.237818717956543 5.175376892089844 4.053095817565918 L 2.532394409179688 9.999824523925781 C 2.637308120727539 10.00943946838379 2.768943786621094 10.01613998413086 2.932085037231445 10.01613998413086 L 30.58004760742188 10.01613998413086 L 27.92828750610352 4.049663543701172 C 27.40402793884277 3.090219497680664 27.04863548278809 2.740992546081543 26.88126564025879 2.617600440979004 C 26.8538932800293 2.597420692443848 26.82780075073242 2.578182220458984 26.79293251037598 2.561256408691406 M 6.613306045532227 0 C 6.613306045532227 0 12.89267539978027 2.470440864562988 16.55978584289551 2.470440864562988 C 20.22689437866211 2.470440864562988 26.49188613891602 0 26.49188613891602 0 C 27.84070587158203 0.03739070892333984 28.91055488586426 0.5953207015991211 30.17310523986816 2.94497013092041 L 33.11807632446289 9.571170806884766 C 33.11807632446289 11.19763088226318 32.53581619262695 12.51614093780518 30.90934562683105 12.51614093780518 L 2.932085037231445 12.51614093780518 C 1.305625915527344 12.51614093780518 -0.3119850158691406 12.05167007446289 -0.01288604736328125 9.571170806884766 L 2.932085037231445 2.94497013092041 C 3.779056549072266 1.374700546264648 4.986845016479492 0 6.613306045532227 0 Z" stroke="none" fill="#c82773"/>
    </g>
  </g>
</svg>
