<svg xmlns="http://www.w3.org/2000/svg" width="44" height="44" viewBox="0 0 44 44">
  <g id="Groupe_6965" data-name="Groupe 6965" transform="translate(15866 17784.93)">
    <circle id="Ellipse_1133" data-name="Ellipse 1133" cx="22" cy="22" r="22" transform="translate(-15866 -17784.93)" fill="#435c7d"/>
    <path id="fi-rr-plus-small" d="M21.736,13.153H16.014V7.431A1.431,1.431,0,0,0,14.583,6h0a1.431,1.431,0,0,0-1.431,1.431v5.722H7.431A1.431,1.431,0,0,0,6,14.583H6a1.431,1.431,0,0,0,1.431,1.431h5.722v5.722a1.431,1.431,0,0,0,1.431,1.431h0a1.431,1.431,0,0,0,1.431-1.431V16.014h5.722a1.431,1.431,0,0,0,1.431-1.431h0A1.431,1.431,0,0,0,21.736,13.153Z" transform="translate(-15858.549 -17777.549)" fill="#fff"/>
  </g>
</svg>
