<svg xmlns="http://www.w3.org/2000/svg" width="11.029" height="8.588" viewBox="0 0 11.029 8.588">
  <g id="nuage-arc-en-ciel_2_" data-name="nuage-arc-en-ciel (2)" transform="translate(0.002 -9.972)">
    <path id="Tracé_51664" data-name="Tracé 51664" d="M4.836,18.551c-2.257-.067-4.049.434-4.759-1.587A2.22,2.22,0,0,1,1.3,14.357,3.674,3.674,0,0,1,8.3,12.232c.084.2.176.22.36.261l.108.026h0a3.069,3.069,0,0,1,2.179,3.674,3.03,3.03,0,0,1-2.265,2.265,3.231,3.231,0,0,1-.653.081C7.487,18.545,6.131,18.551,4.836,18.551Z" transform="translate(0 0)" fill="#fff"/>
  </g>
</svg>
