<svg xmlns="http://www.w3.org/2000/svg" width="75" height="74" viewBox="0 0 75 74">
  <g id="Groupe_7614" data-name="Groupe 7614" transform="translate(4322.305 2135.518)">
    <ellipse id="Ellipse_1299" data-name="Ellipse 1299" cx="37.5" cy="37" rx="37.5" ry="37" transform="translate(-4322.305 -2135.518)" fill="#1cb1b1"/>
    <path id="trophee-etoile" d="M24.073,25.518c10.482-.053,14.212-5.6,14.212-10.364A5.589,5.589,0,0,0,33.876,9.7c.217-.617.405-1.184.533-1.613a6.2,6.2,0,0,0-1-5.518A6.352,6.352,0,0,0,28.281,0H10A6.352,6.352,0,0,0,4.875,2.571a6.2,6.2,0,0,0-1,5.516c.128.429.314,1,.533,1.613A5.589,5.589,0,0,0,0,15.154c0,4.76,3.731,10.311,14.212,10.364a8.068,8.068,0,0,1,.145,1.472V31.9a3,3,0,0,1-3.19,3.19h-1.6a1.6,1.6,0,1,0,0,3.19H28.714a1.6,1.6,0,1,0,0-3.19H27.131a3.007,3.007,0,0,1-3.2-3.19V26.991A8.068,8.068,0,0,1,24.073,25.518ZM32.7,12.762a2.4,2.4,0,0,1,2.393,2.393c0,3.245-2.567,6.7-9.629,7.131a7.8,7.8,0,0,1,1.216-1.31,24.169,24.169,0,0,0,5.945-8.23c.027,0,.049.016.077.016ZM3.19,15.154a2.4,2.4,0,0,1,2.393-2.393c.027,0,.049-.014.075-.016a24.162,24.162,0,0,0,5.945,8.23,7.736,7.736,0,0,1,1.216,1.31C5.757,21.849,3.19,18.4,3.19,15.154Zm13.58,19.94a6.525,6.525,0,0,0,.777-3.19V26.991a11.055,11.055,0,0,0-3.878-8.445C10.847,16.147,8.33,11.9,6.936,7.185a3.032,3.032,0,0,1,.5-2.7A3.181,3.181,0,0,1,10,3.19H28.28a3.184,3.184,0,0,1,2.571,1.291,3.048,3.048,0,0,1,.5,2.7c-1.4,4.717-3.913,8.963-6.733,11.363a11.052,11.052,0,0,0-3.878,8.445V31.9a6.508,6.508,0,0,0,.777,3.19H16.77Zm-1.152-19.52a1.14,1.14,0,0,1-.431-1.311l.828-2.562-2.179-1.6a1.171,1.171,0,0,1,.691-2.115h2.682l.815-2.541a1.177,1.177,0,0,1,2.233,0l.814,2.541h2.682a1.171,1.171,0,0,1,.691,2.117l-2.179,1.6.828,2.562a1.172,1.172,0,0,1-1.809,1.3l-2.142-1.576L17,15.568a1.161,1.161,0,0,1-1.378.006Z" transform="translate(-4304.081 -2115.661)" fill="#fff" stroke="#1cb1b1" stroke-width="1"/>
  </g>
</svg>
