<svg xmlns="http://www.w3.org/2000/svg" version="1.1" xmlns:xlink="http://www.w3.org/1999/xlink" width="20" height="20" x="0" y="0" viewBox="0 0 512 512" style="enable-background:new 0 0 512 512" xml:space="preserve" class=""><g><path d="m281.363 332.478 160.593-160.593V374.49c0 48.62-39.557 88.17-88.176 88.17H135.178C86.556 462.66 47 423.11 47 374.49V155.888c0-48.625 39.556-88.175 88.178-88.175h211.951L181.863 232.975a16.017 16.017 0 0 0-4.315 7.891l-21.572 98.447a16 16 0 0 0 4.315 14.738 16.007 16.007 0 0 0 11.312 4.678c1.141 0 2.288-.117 3.425-.366l98.447-21.572a15.976 15.976 0 0 0 7.888-4.313zM453.831 60.509c-7.203-7.205-16.835-11.169-27.123-11.169-10.289 0-19.918 3.964-27.121 11.169l-30.815 30.81 54.246 54.247 30.813-30.81C461.034 107.551 465 97.918 465 87.633c.001-10.292-3.966-19.92-11.169-27.124zM192.582 321.76l69.468-15.222 138.342-138.345-54.247-54.246-138.342 138.345z" fill="#81899f" opacity="1" data-original="#000000" class=""></path></g></svg>