<svg id="Groupe_7119" data-name="Groupe 7119" xmlns="http://www.w3.org/2000/svg" xmlns:xlink="http://www.w3.org/1999/xlink" width="22.054" height="36.926" viewBox="0 0 22.054 36.926">
  <defs>
    <clipPath id="clip-path">
      <rect id="Rectangle_9896" data-name="Rectangle 9896" width="23" height="37" fill="#1cb0b0" stroke="#1cb0b0" stroke-width="0.7"/>
    </clipPath>
  </defs>
  <g id="Groupe_7118" data-name="Groupe 7118" clip-path="url(#clip-path)">
    <path id="Tracé_31331" data-name="Tracé 31331" d="M13.062,11.188H17.77c1.064,0,2.128.006,3.193,0,.4,0,.777.022.994.425a.959.959,0,0,1-.184,1.064Q16.811,20.1,11.859,27.53q-2.89,4.332-5.781,8.663c-.057.086-.114.173-.173.257a.819.819,0,0,1-1.051.406A.844.844,0,0,1,4.4,35.819c.152-.828.315-1.653.47-2.48.75-3.99,1.5-7.979,2.26-12.035H6.637q-2.794,0-5.587,0c-.909,0-1.238-.451-.948-1.309Q3.354,10.368,6.611.745c.2-.6.407-.743,1.04-.743Q11.6,0,15.545,0c.85,0,1.175.46.9,1.275q-1.6,4.714-3.217,9.426c-.047.138-.093.277-.163.485M6.743,32.1l.1.044L19.754,12.8h-.584c-2.305,0-4.611-.034-6.915.016-.965.021-1.287-.595-1.006-1.382,1.1-3.1,2.143-6.22,3.206-9.334.051-.148.093-.3.148-.475H8.019L1.9,19.687h.584c1.818,0,3.635,0,5.453,0,.738,0,1.066.4.933,1.1q-.721,3.829-1.449,7.658c-.23,1.216-.454,2.433-.681,3.65" transform="translate(0 0)" fill="#1cb0b0" stroke="#1cb0b0" stroke-width="0.7"/>
  </g>
</svg>
