<svg id="Groupe_7119" data-name="Groupe 7119" xmlns="http://www.w3.org/2000/svg" xmlns:xlink="http://www.w3.org/1999/xlink" width="31.372" height="52.527" viewBox="0 0 31.372 52.527">
  <defs>
    <clipPath id="clip-path">
      <rect id="Rectangle_9896" data-name="Rectangle 9896" width="31.372" height="52.527" fill="#1cb0b0" stroke="#1cb0b0" stroke-width="0.7"/>
    </clipPath>
  </defs>
  <g id="Groupe_7118" data-name="Groupe 7118" clip-path="url(#clip-path)">
    <path id="Tracé_31331" data-name="Tracé 31331" d="M18.58,15.915h6.7c1.514,0,3.028.009,4.541,0,.571-.005,1.106.032,1.414.6a1.365,1.365,0,0,1-.261,1.514q-7.058,10.562-14.1,21.133-4.111,6.162-8.224,12.323c-.082.122-.162.246-.246.366a1.166,1.166,0,0,1-1.495.578,1.2,1.2,0,0,1-.653-1.476c.217-1.177.448-2.352.669-3.528,1.066-5.675,2.131-11.351,3.214-17.12H9.441q-3.974,0-7.948,0C.2,30.3-.267,29.661.145,28.44Q4.771,14.749,9.4,1.06C9.694.205,9.983,0,10.885,0Q16.5,0,22.112,0c1.209,0,1.671.654,1.276,1.813q-2.283,6.706-4.576,13.409c-.067.2-.132.394-.232.69M9.592,45.662l.142.062L28.1,18.207h-.831c-3.279,0-6.56-.049-9.837.023-1.372.03-1.83-.846-1.431-1.966,1.569-4.408,3.049-8.849,4.56-13.277.072-.211.133-.426.211-.676H11.407L2.707,28h.831c2.586,0,5.171-.005,7.757,0,1.049,0,1.517.562,1.327,1.57Q11.6,35.025,10.56,40.47c-.327,1.73-.646,3.461-.969,5.192" transform="translate(0 0)" fill="#1cb0b0" stroke="#1cb0b0" stroke-width="0.7"/>
  </g>
</svg>
