<svg xmlns="http://www.w3.org/2000/svg" width="22.339" height="20.95" viewBox="0 0 22.339 20.95">
  <g id="flood-rain" transform="translate(0.5)">
    <path id="Tracé_30540" data-name="Tracé 30540" d="M20.006,17a1.414,1.414,0,0,1,0,2.824,2.068,2.068,0,0,0-1.528.653,4.629,4.629,0,0,1-6.286,0,2.111,2.111,0,0,0-3.052,0,4.624,4.624,0,0,1-6.283,0,2.062,2.062,0,0,0-1.523-.652,1.414,1.414,0,0,1,0-2.824,4.574,4.574,0,0,1,3.14,1.231,2.107,2.107,0,0,0,3.048,0,4.628,4.628,0,0,1,6.285,0,2.114,2.114,0,0,0,3.055,0A4.575,4.575,0,0,1,20.006,17Zm0-5.649a1.415,1.415,0,0,1,0,2.825,2.068,2.068,0,0,0-1.528.653,4.632,4.632,0,0,1-6.286,0,2.111,2.111,0,0,0-3.052,0,4.625,4.625,0,0,1-6.283,0,2.065,2.065,0,0,0-1.523-.652,1.414,1.414,0,0,1,0-2.824,4.568,4.568,0,0,1,3.14,1.231,2.107,2.107,0,0,0,3.048,0,4.628,4.628,0,0,1,6.285,0,2.114,2.114,0,0,0,3.055,0A4.575,4.575,0,0,1,20.006,11.353Z" transform="translate(0 -1.259)" fill="#fff" stroke="#fff" stroke-width="1" fill-rule="evenodd"/>
    <path id="Tracé_30541" data-name="Tracé 30541" d="M6.778,5.446A1.818,1.818,0,0,0,8.557,3.667,5.245,5.245,0,0,0,7.223,1Q5,2.278,5,3.667A1.818,1.818,0,0,0,6.778,5.446Z" transform="translate(-0.554 -0.111)" fill="#fff" fill-rule="evenodd"/>
    <path id="Tracé_30542" data-name="Tracé 30542" d="M15.667,7.113a2.667,2.667,0,0,0,2.667-2.667q0-1.474-1.778-4.446Q13,2.223,13,4.446a2.667,2.667,0,0,0,2.667,2.667Z" transform="translate(-1.441)" fill="#fff" fill-rule="evenodd"/>
  </g>
</svg>
