<svg id="Type_Climate_Sensor_Progress_InProgress_Size_Small" data-name="Type=Climate Sensor, Progress=InProgress, Size=Small" xmlns="http://www.w3.org/2000/svg" width="82.734" height="64.912" viewBox="0 0 82.734 64.912">
  <ellipse id="Ellipse_3710" data-name="Ellipse 3710" cx="4.993" cy="4.993" rx="4.993" ry="4.993" transform="translate(37.088)" fill="#fff"/>
  <g id="Groupe_10978" data-name="Groupe 10978" transform="translate(0 0.386)">
    <path id="Tracé_51660" data-name="Tracé 51660" d="M48.6,9.25A7.85,7.85,0,0,0,48.608.523,41.368,41.368,0,0,1,76.715,62.74,4.279,4.279,0,0,1,69.4,58.294,32.808,32.808,0,0,0,48.6,9.25ZM35.4,8.991A32.809,32.809,0,0,0,12.56,56.955a4.279,4.279,0,0,1-7.515,4.1A41.367,41.367,0,0,1,35.729.271a7.851,7.851,0,0,0-.33,8.72Z" transform="translate(0 -0.271)" fill="#e39858" fill-rule="evenodd"/>
  </g>
</svg>
