<svg id="Groupe_8609" data-name="Groupe 8609" xmlns="http://www.w3.org/2000/svg" xmlns:xlink="http://www.w3.org/1999/xlink" width="8.885" height="19.406" viewBox="0 0 8.885 19.406">
  <defs>
    <clipPath id="clip-path">
      <rect id="Rectangle_10987" data-name="Rectangle 10987" width="8.885" height="19.407" fill="#fff"/>
    </clipPath>
  </defs>
  <g id="Groupe_8608" data-name="Groupe 8608" clip-path="url(#clip-path)">
    <path id="Tracé_48553" data-name="Tracé 48553" d="M4.063,19.406a9.006,9.006,0,0,1-1.186-.3A4.261,4.261,0,0,1,.052,15.582a4.26,4.26,0,0,1,1.537-4.02.415.415,0,0,0,.163-.351q-.007-4.224,0-8.449A2.69,2.69,0,0,1,7.1,2.272a4.076,4.076,0,0,1,.037.565q0,4.2,0,8.392a.375.375,0,0,0,.148.32,4.253,4.253,0,0,1,1.58,3.809,4.282,4.282,0,0,1-2.8,3.73,8.644,8.644,0,0,1-1.24.318ZM2.913,7.115c0,1.471-.006,2.943,0,4.414a.88.88,0,0,1-.4.781,3.174,3.174,0,0,0-1.348,2.92A3.273,3.273,0,0,0,5.1,18.17a3.133,3.133,0,0,0,2.544-2.529,3.111,3.111,0,0,0-1.267-3.318.941.941,0,0,1-.41-.832c.009-2.86,0-5.721,0-8.581,0-.12,0-.24-.012-.359A1.528,1.528,0,0,0,2.912,2.8q0,2.16,0,4.319" transform="translate(0 0.001)" fill="#fff"/>
    <path id="Tracé_48554" data-name="Tracé 48554" d="M28.433,54.309c0,1.244,0,2.488,0,3.732a.238.238,0,0,0,.173.263,1.923,1.923,0,1,1-1.656,3.466,1.92,1.92,0,0,1,.17-3.469.229.229,0,0,0,.162-.251q-.006-3.675,0-7.35a1.306,1.306,0,0,1,.024-.319.576.576,0,0,1,1.125.1c.007.075.006.151.006.227q0,1.8,0,3.6" transform="translate(-23.413 -45.119)" fill="#fff"/>
  </g>
</svg>
