<svg id="Groupe_8607" data-name="Groupe 8607" xmlns="http://www.w3.org/2000/svg" xmlns:xlink="http://www.w3.org/1999/xlink" width="15.153" height="19.406" viewBox="0 0 15.153 19.406">
  <defs>
    <clipPath id="clip-path">
      <rect id="Rectangle_10986" data-name="Rectangle 10986" width="15.153" height="19.406" fill="#fff"/>
    </clipPath>
  </defs>
  <g id="Groupe_8606" data-name="Groupe 8606" clip-path="url(#clip-path)">
    <path id="Tracé_48551" data-name="Tracé 48551" d="M7.69,0a2.517,2.517,0,0,1,.341.288c1.375,1.647,2.766,3.281,4.11,4.953a17.436,17.436,0,0,1,2.4,3.909,6.815,6.815,0,0,1-.1,5.874,7.38,7.38,0,0,1-3.9,3.765,7.261,7.261,0,0,1-4.977.324,7.479,7.479,0,0,1-4.412-3.294A7.369,7.369,0,0,1,0,11.914,6.7,6.7,0,0,1,.6,9.2,17.9,17.9,0,0,1,3.245,4.938C4.532,3.35,5.859,1.794,7.173.228A1.755,1.755,0,0,1,7.463,0ZM7.581,1.195c-.043.045-.074.074-.1.107C6.785,2.12,6.087,2.934,5.4,3.756A31.1,31.1,0,0,0,2.141,8.19a7.906,7.906,0,0,0-1.151,3,6.267,6.267,0,0,0,1.536,4.929,6.424,6.424,0,0,0,4.115,2.264,6.417,6.417,0,0,0,4.69-1.107A6.534,6.534,0,0,0,13.869,13.9a5.762,5.762,0,0,0-.021-3.983,15.332,15.332,0,0,0-2.015-3.562C10.738,4.841,9.5,3.437,8.288,2.019l-.707-.824" transform="translate(0)" fill="#fff"/>
    <path id="Tracé_48552" data-name="Tracé 48552" d="M45.431,200.987a2.451,2.451,0,0,1,0-.246.432.432,0,0,1,.408-.4.417.417,0,0,1,.471.343c.048.279.056.564.1.843a4.037,4.037,0,0,0,3.345,3.292c.218.032.439.046.659.066a.46.46,0,0,1,.47.466.465.465,0,0,1-.509.447,4.988,4.988,0,0,1-4.613-3.19,5.155,5.155,0,0,1-.334-1.621" transform="translate(-42.817 -188.827)" fill="#fff"/>
  </g>
</svg>
