<svg id="Groupe_8611" data-name="Groupe 8611" xmlns="http://www.w3.org/2000/svg" xmlns:xlink="http://www.w3.org/1999/xlink" width="15.835" height="15.838" viewBox="0 0 15.835 15.838">
  <defs>
    <clipPath id="clip-path">
      <rect id="Rectangle_10988" data-name="Rectangle 10988" width="15.835" height="15.838" fill="#fff"/>
    </clipPath>
  </defs>
  <g id="Groupe_8610" data-name="Groupe 8610" clip-path="url(#clip-path)">
    <path id="Tracé_48555" data-name="Tracé 48555" d="M338.787,180.894a.573.573,0,0,1-.622.344c-.267-.016-.535,0-.8,0a.464.464,0,1,1,0-.927c.268,0,.536.012.8,0a.573.573,0,0,1,.622.344Z" transform="translate(-322.952 -172.852)" fill="#fff"/>
    <path id="Tracé_48556" data-name="Tracé 48556" d="M180.615,338.842a.574.574,0,0,1-.344-.622c.016-.267,0-.535,0-.8a.464.464,0,1,1,.927,0c0,.268-.012.536,0,.8a.575.575,0,0,1-.344.622Z" transform="translate(-172.821 -323.005)" fill="#fff"/>
    <path id="Tracé_48557" data-name="Tracé 48557" d="M77.517,72.619A4.918,4.918,0,1,1,72.6,77.541a4.926,4.926,0,0,1,4.913-4.923m.476.964v7.908a3.982,3.982,0,0,0,0-7.908" transform="translate(-69.604 -69.619)" fill="#fff"/>
    <path id="Tracé_48558" data-name="Tracé 48558" d="M53.884,53.35a1.144,1.144,0,0,1,.272.154c.235.215.457.444.678.673a.463.463,0,1,1-.653.657c-.233-.225-.461-.455-.687-.687a.449.449,0,0,1-.1-.512.494.494,0,0,1,.492-.285" transform="translate(-51.149 -51.146)" fill="#fff"/>
    <path id="Tracé_48559" data-name="Tracé 48559" d="M290.909,54.949a.5.5,0,0,1-.458-.262.413.413,0,0,1,.049-.49q.37-.4.773-.775a.459.459,0,0,1,.645.646c-.243.265-.5.518-.763.763a.807.807,0,0,1-.247.119" transform="translate(-278.396 -51.11)" fill="#fff"/>
    <path id="Tracé_48560" data-name="Tracé 48560" d="M55,291.035a1.235,1.235,0,0,1-.159.283c-.215.235-.444.457-.673.678a.464.464,0,1,1-.65-.661q.334-.342.676-.676a.445.445,0,0,1,.525-.1.505.505,0,0,1,.281.474" transform="translate(-51.157 -278.513)" fill="#fff"/>
    <path id="Tracé_48561" data-name="Tracé 48561" d="M292.044,291.6a.49.49,0,0,1-.263.456.417.417,0,0,1-.49-.053c-.268-.248-.528-.5-.774-.774a.459.459,0,0,1,.65-.641c.264.244.517.5.762.764a.783.783,0,0,1,.116.248" transform="translate(-278.409 -278.474)" fill="#fff"/>
    <path id="Tracé_48562" data-name="Tracé 48562" d="M180.381.959c0-.159,0-.319,0-.478a.463.463,0,1,1,.926-.01q.007.486,0,.972a.463.463,0,1,1-.926-.006c0-.159,0-.319,0-.478" transform="translate(-172.928 0.001)" fill="#fff"/>
    <path id="Tracé_48563" data-name="Tracé 48563" d="M.943,181.313c-.154,0-.308,0-.463,0a.463.463,0,1,1-.008-.926q.486-.006.971,0a.463.463,0,1,1-.008.926c-.164,0-.329,0-.493,0" transform="translate(-0.001 -172.93)" fill="#fff"/>
  </g>
</svg>
