<svg id="Groupe_8614" data-name="Groupe 8614" xmlns="http://www.w3.org/2000/svg" xmlns:xlink="http://www.w3.org/1999/xlink" width="21.449" height="21.452" viewBox="0 0 21.449 21.452">
  <defs>
    <clipPath id="clip-path">
      <rect id="Rectangle_10989" data-name="Rectangle 10989" width="21.449" height="21.452" fill="#fff"/>
    </clipPath>
  </defs>
  <g id="Groupe_8613" data-name="Groupe 8613" clip-path="url(#clip-path)">
    <path id="Tracé_48564" data-name="Tracé 48564" d="M0,10.735A10.724,10.724,0,1,1,10.723,21.452,10.745,10.745,0,0,1,0,10.735m20.492-.016A9.768,9.768,0,1,0,10.7,20.5a9.792,9.792,0,0,0,9.789-9.778" transform="translate(0 0)" fill="#fff"/>
    <path id="Tracé_48565" data-name="Tracé 48565" d="M25.454,33.855a8.4,8.4,0,1,1,8.382,8.406,8.413,8.413,0,0,1-8.382-8.406m2.839-4.931a7.409,7.409,0,0,0-1.855,4.457c.306,0,.567,0,.827,0,.339.008.55.2.549.478s-.212.469-.552.476c-.269.006-.539,0-.832,0a7.42,7.42,0,0,0,2.309,4.915,8.405,8.405,0,0,1,10.232,0,7.415,7.415,0,0,0,2.3-4.916c-.3,0-.565,0-.825,0-.34-.008-.551-.194-.553-.475s.21-.471.548-.479c.27-.006.54,0,.831,0a7.436,7.436,0,0,0-1.857-4.457c-.22.237-.4.447-.593.635a.475.475,0,1,1-.662-.676c.191-.194.405-.365.6-.542a6.827,6.827,0,0,0-4.431-1.868c0,.269.006.54,0,.811a.48.48,0,1,1-.953,0c-.007-.271,0-.542,0-.811a6.876,6.876,0,0,0-4.433,1.857c.2.179.411.352.6.547a.477.477,0,1,1-.68.66c-.187-.182-.356-.383-.572-.616M38.168,39.9a7.249,7.249,0,0,0-8.609-.006,7.31,7.31,0,0,0,8.609.006" transform="translate(-23.13 -23.133)" fill="#fff"/>
    <path id="Tracé_48566" data-name="Tracé 48566" d="M103.9,66.021c0,.443.006.887,0,1.33a.353.353,0,0,0,.2.373,1.384,1.384,0,0,1,.676,1.628,1.411,1.411,0,0,1-2.716-.023,1.378,1.378,0,0,1,.672-1.6.376.376,0,0,0,.213-.4q-.008-1.347,0-2.695c0-.368.185-.572.488-.565a.467.467,0,0,1,.465.52c.008.477,0,.955,0,1.433m-.494,2.474a.46.46,0,0,0-.437.476.455.455,0,0,0,.485.425.435.435,0,0,0,.417-.456.452.452,0,0,0-.465-.445" transform="translate(-92.695 -58.219)" fill="#fff"/>
  </g>
</svg>
