<svg xmlns="http://www.w3.org/2000/svg" width="24" height="24.005" viewBox="0 0 24 24.005">
  <g id="Groupe_8544" data-name="Groupe 8544" transform="translate(-333 -1090.999)">
    <path id="maison-vierge" d="M19,24H5a5.006,5.006,0,0,1-5-5V9.724A4.992,4.992,0,0,1,2.2,5.579L9.2.855a4.981,4.981,0,0,1,5.594,0l7,4.724A4.992,4.992,0,0,1,24,9.724V19A5.006,5.006,0,0,1,19,24ZM12,2a2.989,2.989,0,0,0-1.678.517l-7,4.723A2.993,2.993,0,0,0,2,9.723V19a3,3,0,0,0,3,3H19a3,3,0,0,0,3-3V9.724a2.993,2.993,0,0,0-1.321-2.486l-7-4.724A2.989,2.989,0,0,0,12,2Z" transform="translate(333 1091.004)" fill="#fff"/>
    <g id="Rectangle_10953" data-name="Rectangle 10953" transform="translate(344.25 1106)" fill="#fff" stroke="#fff" stroke-width="1">
      <rect width="1.5" height="4.5" rx="0.75" stroke="none"/>
      <rect x="0.5" y="0.5" width="0.5" height="3.5" rx="0.25" fill="none"/>
    </g>
  </g>
</svg>
