<svg id="Groupe_11617" data-name="Groupe 11617" xmlns="http://www.w3.org/2000/svg" xmlns:xlink="http://www.w3.org/1999/xlink" width="6.602" height="9.069" viewBox="0 0 6.602 9.069">
  <defs>
    <clipPath id="clip-path">
      <rect id="Rectangle_13161" data-name="Rectangle 13161" width="6.602" height="9.069" fill="#fff"/>
    </clipPath>
  </defs>
  <g id="Groupe_10981" data-name="Groupe 10981" clip-path="url(#clip-path)">
    <path id="Tracé_51675" data-name="Tracé 51675" d="M3.069,9.069c-.168-.028-.339-.044-.5-.087a3.254,3.254,0,0,1-2.487-2.5A2.917,2.917,0,0,1,.3,4.558,12.719,12.719,0,0,1,1.521,2.4c.488-.71,1-1.405,1.5-2.107A1.5,1.5,0,0,0,3.123.119.189.189,0,0,1,3.461.091c.189.242.378.483.561.73A23.266,23.266,0,0,1,5.875,3.664a6.85,6.85,0,0,1,.647,1.555,2.77,2.77,0,0,1-.191,1.84A3.251,3.251,0,0,1,3.808,9.03c-.092.017-.186.026-.279.039Z" transform="translate(0 0)" fill="#fff"/>
  </g>
</svg>
