<svg xmlns="http://www.w3.org/2000/svg" version="1.1" xmlns:xlink="http://www.w3.org/1999/xlink" width="24" height="24" x="0" y="0" viewBox="0 0 35 35" style="enable-background:new 0 0 512 512" xml:space="preserve" class=""><g><path d="M17.5 22.131a1.249 1.249 0 0 1-1.25-1.25V2.187a1.25 1.25 0 0 1 2.5 0v18.694a1.25 1.25 0 0 1-1.25 1.25z" fill="#000000" opacity="1" data-original="#000000" class=""></path><path d="M17.5 22.693a3.189 3.189 0 0 1-2.262-.936l-6.751-6.751a1.249 1.249 0 0 1 1.767-1.767l6.751 6.751a.7.7 0 0 0 .99 0l6.751-6.751a1.25 1.25 0 0 1 1.768 1.767l-6.752 6.751a3.191 3.191 0 0 1-2.262.936z" fill="#000000" opacity="1" data-original="#000000" class=""></path><path d="M31.436 34.063H3.564A3.318 3.318 0 0 1 .25 30.749v-8.738a1.25 1.25 0 0 1 2.5 0v8.738a.815.815 0 0 0 .814.814h27.872a.815.815 0 0 0 .814-.814v-8.738a1.25 1.25 0 1 1 2.5 0v8.738a3.318 3.318 0 0 1-3.314 3.314z" fill="#000000" opacity="1" data-original="#000000" class=""></path></g></svg>