<svg xmlns="http://www.w3.org/2000/svg" width="34.128" height="30.493" viewBox="0 0 34.128 30.493">
  <g id="Groupe_8574" data-name="Groupe 8574" transform="translate(-240.932 -345.432)">
    <g id="cercle-de-jauge-plus" transform="translate(240.932 345.432)">
      <path id="Tracé_48557" data-name="Tracé 48557" d="M15.22,14.884a3.1,3.1,0,0,0-1.555-2.679V5.555a1.555,1.555,0,1,0-3.11,0v6.65a3.1,3.1,0,1,0,4.665,2.679Z" transform="translate(4.994 2.219)" fill="#45bfbe"/>
      <path id="Tracé_48558" data-name="Tracé 48558" d="M10.432,25.822,8.981,27.076a1.275,1.275,0,0,1-1.724-.045,13.99,13.99,0,1,1,23.768-11.36,1.556,1.556,0,0,0,3.1-.314A17.105,17.105,0,1,0,5.067,29.241a4.4,4.4,0,0,0,5.951.187l1.451-1.255a1.555,1.555,0,0,0-2.034-2.353Z" transform="translate(0 -0.001)" fill="#45bfbe"/>
    </g>
  </g>
</svg>
