<svg xmlns="http://www.w3.org/2000/svg" xmlns:xlink="http://www.w3.org/1999/xlink" width="75" height="74" viewBox="0 0 75 74">
  <defs>
    <clipPath id="clip-path">
      <rect id="Rectangle_10080" data-name="Rectangle 10080" width="31.541" height="36.701" fill="#fff"/>
    </clipPath>
  </defs>
  <g id="Groupe_7618" data-name="Groupe 7618" transform="translate(4134.305 1984.518)">
    <ellipse id="Ellipse_1301" data-name="Ellipse 1301" cx="37.5" cy="37" rx="37.5" ry="37" transform="translate(-4134.305 -1984.518)" fill="#1cb1b1"/>
    <g id="Groupe_7590" data-name="Groupe 7590" transform="translate(-4112.552 -1965.495)">
      <g id="Groupe_7305" data-name="Groupe 7305" clip-path="url(#clip-path)">
        <path id="Tracé_36107" data-name="Tracé 36107" d="M22.052,0A.943.943,0,0,1,22.7.959a2.718,2.718,0,0,1-.985,2.324,1.74,1.74,0,0,0-.6,1.381c0,1.661-.01,3.321,0,4.982a7.933,7.933,0,0,0,.9,3.477c3.05,6.155,6.06,12.323,9.151,18.464,1.2,2.384-.6,4.763-3.205,5.064a.415.415,0,0,0-.113.05H3.728a12.372,12.372,0,0,1-1.669-.544,3.165,3.165,0,0,1-1.8-4.129c.942-2.061,1.988-4.091,3-6.131q3.164-6.4,6.336-12.8a8.113,8.113,0,0,0,.884-3.73c-.015-1.54-.01-3.081,0-4.622A1.885,1.885,0,0,0,9.8,3.2,2.717,2.717,0,0,1,8.911.643C8.941.312,9.233.16,9.519,0ZM2.4,31.4c.254,0,.451,0,.648,0,.6.016.99.3,1,.712s-.4.714-1.023.72c-.412,0-.825,0-1.239,0a1.806,1.806,0,0,0-.038.184c-.1,1.246,1.092,2.245,2.706,2.246q11.341.007,22.683,0a3.594,3.594,0,0,0,.932-.116,2.019,2.019,0,0,0,1.5-2.963Q26.4,25.759,23.228,19.34a.466.466,0,0,0-.51-.273c-1.181.012-2.362.005-3.543.005q-5.141,0-10.283.006c-.157,0-.405.059-.455.149-.327.594-.61,1.2-.93,1.853.3,0,.538-.011.778,0,.563.032.917.334.9.749s-.376.665-.932.678c-.389.009-.778-.005-1.166.007-.112,0-.289.039-.322.1-.326.616-.628,1.24-.957,1.9.308,0,.538-.013.766,0,.533.036.888.341.875.734s-.377.677-.921.691c-.388.01-.778-.006-1.166.009-.11,0-.279.052-.314.118-.319.608-.614,1.225-.94,1.886.289,0,.5-.012.718,0,.527.036.9.348.885.731s-.387.68-.922.7c-.374.01-.75-.009-1.123.01a.479.479,0,0,0-.334.143c-.315.6-.6,1.206-.924,1.857M10.511,1.447a5.753,5.753,0,0,0,.6.824,3.289,3.289,0,0,1,1.087,2.5c0,1.576,0,3.152,0,4.728a8.184,8.184,0,0,1-.749,3.54c-.668,1.409-1.365,2.808-2.049,4.211-.057.117-.108.236-.169.372H22.358c-.071-.15-.126-.27-.185-.389q-.9-1.82-1.8-3.64a8.079,8.079,0,0,1-.944-3.325c-.048-1.683-.015-3.367-.062-5.049a3.71,3.71,0,0,1,1.276-3.126,2.256,2.256,0,0,0,.366-.642Z" transform="translate(0)" fill="#fff"/>
      </g>
    </g>
  </g>
</svg>
