<svg id="Groupe_7306" data-name="Groupe 7306" xmlns="http://www.w3.org/2000/svg" xmlns:xlink="http://www.w3.org/1999/xlink" width="47.009" height="54.699" viewBox="0 0 47.009 54.699">
  <defs>
    <clipPath id="clip-path">
      <rect id="Rectangle_10080" data-name="Rectangle 10080" width="47.009" height="54.699" fill="#1cb0b0"/>
    </clipPath>
  </defs>
  <g id="Groupe_7305" data-name="Groupe 7305" clip-path="url(#clip-path)">
    <path id="Tracé_36107" data-name="Tracé 36107" d="M32.866,0a1.405,1.405,0,0,1,.959,1.429,4.051,4.051,0,0,1-1.468,3.464,2.593,2.593,0,0,0-.9,2.058c0,2.475-.014,4.95.006,7.424a11.823,11.823,0,0,0,1.34,5.183c4.546,9.173,9.031,18.367,13.639,27.519,1.788,3.553-.892,7.1-4.777,7.548a.618.618,0,0,0-.168.074H5.556a18.439,18.439,0,0,1-2.487-.811C.511,52.636-.669,50.041.385,47.734c1.4-3.072,2.962-6.1,4.465-9.138q4.716-9.544,9.444-19.083a12.091,12.091,0,0,0,1.318-5.56c-.023-2.3-.014-4.592,0-6.888A2.809,2.809,0,0,0,14.6,4.774,4.049,4.049,0,0,1,13.281.959c.045-.493.48-.72.906-.959ZM3.58,46.8c.379,0,.672-.007.965,0,.894.023,1.476.441,1.488,1.061s-.594,1.063-1.524,1.073c-.615.006-1.229,0-1.846,0a2.692,2.692,0,0,0-.057.274c-.146,1.856,1.627,3.346,4.033,3.348q16.9.01,33.806,0a5.357,5.357,0,0,0,1.389-.173c2.244-.617,3.19-2.474,2.234-4.416q-4.716-9.574-9.45-19.141a.7.7,0,0,0-.761-.407c-1.76.018-3.52.008-5.28.008q-7.663,0-15.326.01c-.234,0-.6.087-.678.222-.487.885-.909,1.793-1.386,2.762.442,0,.8-.017,1.159,0,.839.047,1.367.5,1.335,1.117-.03.6-.56.992-1.39,1.01-.579.013-1.16-.008-1.738.011-.167.005-.431.058-.48.151-.486.917-.936,1.848-1.427,2.837.458,0,.8-.019,1.141,0,.795.054,1.324.508,1.3,1.094s-.561,1.009-1.373,1.03c-.579.015-1.16-.009-1.738.013-.164.006-.416.077-.468.176-.476.907-.916,1.826-1.4,2.811.43,0,.752-.018,1.069,0,.785.053,1.337.518,1.32,1.089s-.577,1.014-1.374,1.036c-.557.015-1.117-.013-1.673.014a.713.713,0,0,0-.5.213c-.47.891-.9,1.8-1.377,2.768M15.666,2.157a8.574,8.574,0,0,0,.9,1.227,4.9,4.9,0,0,1,1.62,3.722c-.006,2.349,0,4.7,0,7.047a12.2,12.2,0,0,1-1.117,5.276c-1,2.1-2.035,4.184-3.054,6.276-.085.174-.16.351-.252.554H33.323c-.106-.223-.188-.4-.276-.579q-1.34-2.713-2.68-5.425A12.041,12.041,0,0,1,28.96,15.3c-.072-2.508-.022-5.018-.093-7.526a5.53,5.53,0,0,1,1.9-4.66,3.362,3.362,0,0,0,.545-.957Z" transform="translate(0)" fill="#1cb0b0"/>
  </g>
</svg>
