<svg xmlns="http://www.w3.org/2000/svg" xmlns:xlink="http://www.w3.org/1999/xlink" width="53.869" height="52.474" viewBox="0 0 53.869 52.474">
  <defs>
    <clipPath id="clip-path">
      <rect id="Rectangle_7733" data-name="Rectangle 7733" width="53.869" height="52.474" fill="#435c7d"/>
    </clipPath>
  </defs>
  <g id="Groupe_7117" data-name="Groupe 7117" transform="translate(-1777 -205.643)">
    <g id="Groupe_4639" data-name="Groupe 4639" transform="translate(1777 205.643)">
      <g id="Groupe_4638" data-name="Groupe 4638" clip-path="url(#clip-path)">
        <path id="Tracé_24975" data-name="Tracé 24975" d="M161.49,11.615c-2.478.654-4.751,1.249-7.021,1.855-2.2.586-4.369,1.279-6.59,1.744a4.933,4.933,0,0,1-4.143-1.076,14.043,14.043,0,0,1-1.178-1.062q-4.146-4.133-8.28-8.277c-.151-.151-.295-.31-.47-.5a5.346,5.346,0,0,1,2.625-1.413c1.455-.4,2.911-.805,4.37-1.191,2.126-.562,4.232-1.255,6.393-1.617a5.521,5.521,0,0,1,4.745,1.378c2.7,2.53,5.313,5.146,7.906,7.782a17.006,17.006,0,0,1,1.643,2.373" transform="translate(-112.558 0)" fill="#435c7d"/>
        <path id="Tracé_24976" data-name="Tracé 24976" d="M142.852,162.386a5.439,5.439,0,0,1,1.58-2.483c1.982-2.025,4.012-4,6-6.022A5.959,5.959,0,0,1,155.7,152a27.338,27.338,0,0,1,3.281.814c2.218.588,4.442,1.154,6.643,1.8a14.285,14.285,0,0,1,2.094,1c-2.988,2.989-5.823,5.9-8.745,8.718a4.646,4.646,0,0,1-4.724,1.11c-2.707-.752-5.43-1.446-8.145-2.17-1.071-.285-2.138-.584-3.247-.888" transform="translate(-120.167 -127.81)" fill="#435c7d"/>
        <path id="Tracé_24977" data-name="Tracé 24977" d="M32.366,116.789l-3.205,1.846c-2.42,1.392-4.825,2.81-7.264,4.167a4.926,4.926,0,0,1-5.161-.213c-2.525-1.469-5.06-2.921-7.588-4.384-.792-.458-1.576-.928-2.385-1.4a3.979,3.979,0,0,1,1.8-1.795c2.749-1.615,5.493-3.246,8.309-4.737a5.837,5.837,0,0,1,5.775.195c2.687,1.492,5.334,3.058,7.98,4.622a4.065,4.065,0,0,1,1.743,1.7" transform="translate(-5.689 -92.193)" fill="#435c7d"/>
        <path id="Tracé_24978" data-name="Tracé 24978" d="M13.324,180.632a1.939,1.939,0,0,1-1.622-.267c-1.394-.724-2.754-1.515-4.113-2.3-1.769-1.026-3.576-2-5.272-3.137a5.015,5.015,0,0,1-2.285-4.218c-.05-2.991-.035-5.983,0-8.974a11.648,11.648,0,0,1,.389-2c.894.5,1.659.92,2.414,1.355,2.252,1.3,4.49,2.618,6.757,3.887.975.546,2,1,3.019,1.465a2.576,2.576,0,0,0,.756.1c.017.027.056.06.056.092q0,6.953-.006,13.907l-.1.1" transform="translate(0 -134.367)" fill="#435c7d"/>
        <path id="Tracé_24979" data-name="Tracé 24979" d="M140.577,223.45c3.793,1,7.468,1.988,11.151,2.941a16.842,16.842,0,0,0,2.219.359,4.15,4.15,0,0,0,.894-.091l3.673,13.728a9.664,9.664,0,0,1-3.9-.418c-2.607-.753-5.239-1.416-7.849-2.16a5.681,5.681,0,0,1-4-4.273q-1.092-3.893-2.054-7.822a12.533,12.533,0,0,1-.137-2.262" transform="translate(-118.253 -187.966)" fill="#435c7d"/>
        <path id="Tracé_24980" data-name="Tracé 24980" d="M239.894,203.752l-3.7-13.809a10.212,10.212,0,0,0,3.171-2.364c2.487-2.5,4.982-4.988,7.5-7.5a7.6,7.6,0,0,1,1.505,3.352c.646,2.441,1.4,4.862,1.885,7.335a5.2,5.2,0,0,1-1.445,4.726q-3.44,3.534-6.98,6.97a13.009,13.009,0,0,1-1.927,1.293" transform="translate(-198.684 -151.48)" fill="#435c7d"/>
        <path id="Tracé_24981" data-name="Tracé 24981" d="M105.042,43.31c.258-.991.528-2.043.806-3.092.593-2.235,1.181-4.471,1.792-6.7a5.707,5.707,0,0,1,1.27-2.264c.2.189.355.333.505.483,2.926,2.925,5.831,5.872,8.793,8.761a18.054,18.054,0,0,0,2.2,1.531.571.571,0,0,1,.229.452c-.757,2.922-1.5,5.849-2.347,8.744-.159.541-.786.945-1.237,1.458a1.815,1.815,0,0,1-.247-.383,6.679,6.679,0,0,0-3.251-4.056c-2.795-1.621-5.59-3.239-8.514-4.933" transform="translate(-88.361 -26.29)" fill="#435c7d"/>
        <path id="Tracé_24982" data-name="Tracé 24982" d="M196.335,91c.676-2.539,1.333-5.025,2.013-7.5a.563.563,0,0,1,.408-.341,14.817,14.817,0,0,0,5.1-.929c2.2-.635,4.425-1.2,6.64-1.786,1.071-.285,2.146-.552,3.217-.838.518-.139.58.21.548.549a19.544,19.544,0,0,1-.365,2.933c-.656,2.613-1.395,5.206-2.123,7.8a14.682,14.682,0,0,1-.611,1.594c-.11.266-.277.33-.6.244-2.932-.794-5.874-1.555-8.81-2.336a7.119,7.119,0,0,0-5.071.486c-.095.046-.2.075-.343.13" transform="translate(-165.157 -66.934)" fill="#435c7d"/>
        <path id="Tracé_24983" data-name="Tracé 24983" d="M103.786,159.627c.164.646.333,1.189.422,1.745.025.158-.149.385-.288.525-1.308,1.324-2.645,2.619-3.94,3.956a6.9,6.9,0,0,0-1.766,7.11c.307,1.085.6,2.173.876,3.267a.528.528,0,0,1-.211.444c-1.928,1.124-3.853,2.252-5.81,3.322a16.373,16.373,0,0,1-2.106.8V166.448c1.586-.114,2.825-1.07,4.151-1.813,1.968-1.1,3.913-2.244,5.866-3.373.892-.515,1.78-1.037,2.807-1.636" transform="translate(-76.518 -134.278)" fill="#435c7d"/>
        <path id="Tracé_24984" data-name="Tracé 24984" d="M312.29,303.516c-.051.375-.085.74-.158,1.1-.022.107-.18.282-.235.268a.469.469,0,0,1-.307-.257c-.1-.351-.139-.715-.2-1.088-.342-.058-.7-.1-1.057-.189-.122-.03-.217-.172-.324-.263.1-.1.193-.2.291-.3a.077.077,0,0,1,.053-.022c.807.067,1.155-.346,1.213-1.112.011-.15.173-.289.265-.432a2.122,2.122,0,0,1,.307.47,8.071,8.071,0,0,1,.189.927c.3.044.661.073,1.009.159.135.033.24.192.358.294-.105.094-.2.243-.319.273-.336.082-.683.115-1.082.176" transform="translate(-260.775 -253.385)" fill="#435c7d"/>
        <path id="Tracé_24985" data-name="Tracé 24985" d="M66.055,73.088l-.187-1.234c-.322-.054-.664-.1-1-.173a1.459,1.459,0,0,1-.369-.213c.091-.128.157-.331.276-.369a7.461,7.461,0,0,1,1-.181l.346-1.566c.235.284.46.435.5.623.192.975.176.974,1.135,1.123a2.249,2.249,0,0,1,.433.161l.01.182a3.576,3.576,0,0,1-.712.241c-.7.085-.825.19-.846.923-.01.36-.109.584-.592.483" transform="translate(-54.259 -58.339)" fill="#435c7d"/>
        <path id="Tracé_24986" data-name="Tracé 24986" d="M318.963,153.6l1.285.2c.1.415-.131.547-.485.557-.578.016-1.036.115-.942.884.021.165-.224.363-.346.546-.117-.171-.351-.357-.33-.509.107-.808-.478-.8-.984-.929a1.8,1.8,0,0,1-.47-.3c.154-.133.316-.389.459-.378.8.061,1.007-.349.988-1.044,0-.132.16-.269.246-.4.132.118.333.213.381.358a7.618,7.618,0,0,1,.2,1.021" transform="translate(-266.4 -128.044)" fill="#435c7d"/>
        <path id="Tracé_24987" data-name="Tracé 24987" d="M119.287,304.959l-.367-1.356-1.4-.379c0-.086,0-.171,0-.257l1.433-.413a7.658,7.658,0,0,1,.135-.87,1.638,1.638,0,0,1,.282-.437c.1.116.208.228.3.349.046.059.109.137.1.2-.091.835.372,1.034,1.09,1,.113,0,.234.19.352.293-.1.1-.2.2-.311.286-.025.021-.077,0-.116.011-.534.092-1.178.038-1.017.932.034.189-.175.422-.271.634l-.21,0" transform="translate(-98.854 -253.409)" fill="#435c7d"/>
        <path id="Tracé_24988" data-name="Tracé 24988" d="M85.056,30.017c.067-.384.105-.71.19-1.022.027-.1.2-.243.272-.224.119.033.208.176.306.275.01.01,0,.038,0,.058-.029.733.27,1.168,1.053,1.2a2.356,2.356,0,0,1,.514.136l.024.186a2.351,2.351,0,0,1-.747.256c-.673-.012-.785.4-.851.928a1.782,1.782,0,0,1-.249.511,1.9,1.9,0,0,1-.327-.434,5.818,5.818,0,0,1-.185-.8l-1.414-.4q0-.141.008-.283l1.4-.381" transform="translate(-70.362 -24.201)" fill="#435c7d"/>
        <path id="Tracé_24989" data-name="Tracé 24989" d="M83.906,290.818l.1-.1-.1.1" transform="translate(-70.582 -244.554)" fill="#435c7d"/>
      </g>
    </g>
    <g id="Groupe_4640" data-name="Groupe 4640" transform="translate(1805.839 212.309) rotate(-34)">
      <path id="Tracé_24944" data-name="Tracé 24944" d="M8.012,4.211V7.554a.95.95,0,0,1-.064.387.781.781,0,0,1-.626.488.752.752,0,0,1-.709-.258c-.433-.46-.866-.921-1.289-1.381L.23,1.338A.821.821,0,0,1,.009.915.567.567,0,0,1,.018.666.83.83,0,0,1,.654.021a.754.754,0,0,1,.755.239c.313.332.626.672.949,1.013.995,1.068,1.989,2.127,2.975,3.2l.746.8a.2.2,0,0,0,.184.074A.157.157,0,0,0,6.4,5.2V.8a.861.861,0,0,1,.092-.4A.778.778,0,0,1,6.934.067.805.805,0,0,1,7.975.629,1.142,1.142,0,0,1,8,.878C8.012,1.974,8.012,3.088,8.012,4.211Z" transform="translate(0 0)" fill="#fff"/>
      <path id="Tracé_24945" data-name="Tracé 24945" d="M0,1.22A1.268,1.268,0,0,1,.387.309,1.18,1.18,0,0,1,.976.023,1.188,1.188,0,0,1,2.054.336a1.17,1.17,0,0,1,.378.985,1.17,1.17,0,0,1-.322.755,1.172,1.172,0,0,1-.58.322A1.223,1.223,0,0,1,.037,1.533,1.622,1.622,0,0,1,0,1.22Z" transform="translate(0.009 5.929)" fill="#fff"/>
    </g>
  </g>
</svg>
