<svg xmlns="http://www.w3.org/2000/svg" xmlns:xlink="http://www.w3.org/1999/xlink" width="60.7" height="42.294" viewBox="0 0 60.7 42.294">
  <defs>
    <clipPath id="clip-path">
      <rect id="Rectangle_9895" data-name="Rectangle 9895" width="60.7" height="42.294" fill="#1cb0b0" stroke="#1cb0b0" stroke-width="0.7"/>
    </clipPath>
  </defs>
  <g id="Groupe_7114" data-name="Groupe 7114" transform="translate(0 0)">
    <g id="Groupe_7113" data-name="Groupe 7113" transform="translate(0 0)" clip-path="url(#clip-path)">
      <path id="Tracé_31325" data-name="Tracé 31325" d="M10.244,22.653a12.541,12.541,0,0,1,.014-5.537A11.869,11.869,0,0,1,27.646,9.474a.861.861,0,0,0,1.135-.066A14.218,14.218,0,0,1,51.48,17.6a13.833,13.833,0,0,1-1.318,9.573c-.1.193-.2.386-.315.617.112.077.211.151.315.217a6.168,6.168,0,0,1,2.92,6.5,6.274,6.274,0,0,1-4.841,5.083,7.323,7.323,0,0,1-1.62.169q-18.967.015-37.935,0A8.6,8.6,0,1,1,9.507,22.6c.212.017.425.031.737.053m17.43,15.011q9.386,0,18.773,0a8.682,8.682,0,0,0,1.044-.055A4.233,4.233,0,0,0,48,29.314a4.444,4.444,0,0,0-2.81.246,1.348,1.348,0,0,1-1.169-.193c-.225-.2-.235-.737-.2-1.11a4.949,4.949,0,0,1,.407-1.025,6.51,6.51,0,0,0-7.685-8.627,6.206,6.206,0,0,0-3.113,1.826.979.979,0,0,1-1.23.312,1.766,1.766,0,0,1-.58-1c-.141-.544-.1-1.132-.235-1.679a9.587,9.587,0,0,0-7.139-7.578,9.193,9.193,0,0,0-9.874,3.021,9.456,9.456,0,0,0-1.686,10.26,1.1,1.1,0,0,1-.145,1.324,1.017,1.017,0,0,1-1.261.169,4.292,4.292,0,0,0-.486-.193,6.252,6.252,0,0,0-6.618,1.374,6.168,6.168,0,0,0-1.827,6.5A6.529,6.529,0,0,0,8.9,37.662q9.386.015,18.773,0m18.943-10.6c.58.006,1.083.264,1.5-.493a12.405,12.405,0,0,0-1.1-13.479A12.1,12.1,0,0,0,34.127,8.922a9.734,9.734,0,0,0-4.071,2.263,12.16,12.16,0,0,1,3.547,6.4c4.479-1.808,7.379-1.637,10.1.66a8.494,8.494,0,0,1,2.916,8.824" transform="translate(0 2.531)" fill="#1cb0b0" stroke="#1cb0b0" stroke-width="0.7"/>
      <path id="Tracé_31326" data-name="Tracé 31326" d="M38.6,11.98c-.348-.291-.837-.5-.923-.822a1.37,1.37,0,0,1,.3-1.205,32.291,32.291,0,0,1,3.239-1.919.9.9,0,0,1,1.258.343,1.193,1.193,0,0,1,.064,1.05C41.51,10.617,40.011,11.1,38.6,11.98" transform="translate(14.981 3.147)" fill="#1cb0b0" stroke="#1cb0b0" stroke-width="0.7"/>
      <path id="Tracé_31327" data-name="Tracé 31327" d="M22.133,6.343c-.2.233-.405.622-.724.794a.91.91,0,0,1-1.218-.33c-.667-1.044-1.3-2.112-1.89-3.2a1.051,1.051,0,0,1,1.8-1.079c.649,1.03,1.247,2.093,1.854,3.148a3.391,3.391,0,0,1,.18.668" transform="translate(7.237 0.83)" fill="#1cb0b0" stroke="#1cb0b0" stroke-width="0.7"/>
      <path id="Tracé_31328" data-name="Tracé 31328" d="M42.175,17.876c-.589,0-1.176.017-1.766,0a.948.948,0,0,1-1.018-.96.95.95,0,0,1,.941-1.1q1.862-.059,3.727,0a1.033,1.033,0,0,1-.052,2.063c-.61.022-1.222.006-1.833.006" transform="translate(15.676 6.279)" fill="#1cb0b0" stroke="#1cb0b0" stroke-width="0.7"/>
      <path id="Tracé_31329" data-name="Tracé 31329" d="M28.128,2.859c0,.586.008,1.173,0,1.759a.933.933,0,0,1-.9,1.005A.99.99,0,0,1,26.1,4.762c-.057-1.321-.057-2.646,0-3.966.027-.6.521-.829,1.082-.793a.89.89,0,0,1,.927.9c.027.651.007,1.3.007,1.954h.008" transform="translate(10.371 -0.001)" fill="#1cb0b0" stroke="#1cb0b0" stroke-width="0.7"/>
      <path id="Tracé_31330" data-name="Tracé 31330" d="M33.888,7.229c-.9-.027-1.37-.72-1.047-1.369.562-1.13,1.183-2.233,1.824-3.319a1,1,0,0,1,1.378-.334,1.025,1.025,0,0,1,.445,1.4C35.912,4.661,35.317,5.7,34.66,6.7c-.187.287-.611.421-.772.526" transform="translate(13.029 0.821)" fill="#1cb0b0" stroke="#1cb0b0" stroke-width="0.7"/>
    </g>
  </g>
</svg>
