<svg xmlns="http://www.w3.org/2000/svg" xmlns:xlink="http://www.w3.org/1999/xlink" width="42.566" height="29.659" viewBox="0 0 42.566 29.659">
  <defs>
    <clipPath id="clip-path">
      <rect id="Rectangle_9895" data-name="Rectangle 9895" width="42.566" height="29.659" fill="#1cb0b0" stroke="#1cb0b0" stroke-width="0.7"/>
    </clipPath>
  </defs>
  <g id="Groupe_7594" data-name="Groupe 7594" transform="translate(0 0)">
    <g id="Groupe_7113" data-name="Groupe 7113" transform="translate(0 0)" clip-path="url(#clip-path)">
      <path id="Tracé_31325" data-name="Tracé 31325" d="M7.184,17.786a8.794,8.794,0,0,1,.01-3.883A8.323,8.323,0,0,1,19.387,8.544a.6.6,0,0,0,.8-.046A9.97,9.97,0,0,1,36.1,14.239a9.7,9.7,0,0,1-.924,6.713c-.07.135-.138.271-.221.432.078.054.148.106.221.152a4.325,4.325,0,0,1,2.048,4.556,4.4,4.4,0,0,1-3.395,3.564,5.136,5.136,0,0,1-1.136.119q-13.3.01-26.6,0a6.03,6.03,0,1,1,.576-12.026c.149.012.3.022.517.037M19.407,28.313q6.582,0,13.165,0a6.088,6.088,0,0,0,.732-.038,2.968,2.968,0,0,0,.359-5.815,3.117,3.117,0,0,0-1.97.173.945.945,0,0,1-.82-.135c-.158-.139-.165-.517-.137-.778A3.47,3.47,0,0,1,31.021,21a4.565,4.565,0,0,0-5.389-6.05,4.352,4.352,0,0,0-2.183,1.28.687.687,0,0,1-.863.219,1.239,1.239,0,0,1-.407-.7c-.1-.381-.074-.794-.165-1.177a6.723,6.723,0,0,0-5.007-5.314,6.447,6.447,0,0,0-6.924,2.118A6.631,6.631,0,0,0,8.9,18.567a.772.772,0,0,1-.1.928.714.714,0,0,1-.884.119,3.01,3.01,0,0,0-.341-.135,4.384,4.384,0,0,0-4.641.964A4.326,4.326,0,0,0,1.652,25a4.578,4.578,0,0,0,4.59,3.31q6.582.01,13.165,0M32.69,20.881c.407,0,.76.185,1.049-.346a8.7,8.7,0,0,0-.773-9.452,8.483,8.483,0,0,0-9.035-2.925,6.826,6.826,0,0,0-2.855,1.587,8.527,8.527,0,0,1,2.487,4.486c3.141-1.268,5.174-1.148,7.081.463a5.956,5.956,0,0,1,2.045,6.188" transform="translate(0 -0.125)" fill="#1cb0b0" stroke="#1cb0b0" stroke-width="0.7"/>
      <path id="Tracé_31326" data-name="Tracé 31326" d="M38.312,10.764c-.244-.2-.587-.353-.647-.576a.961.961,0,0,1,.214-.845A22.644,22.644,0,0,1,40.15,8a.634.634,0,0,1,.882.24.837.837,0,0,1,.045.736,11.1,11.1,0,0,1-2.766,1.791" transform="translate(-0.74 -0.156)" fill="#1cb0b0" stroke="#1cb0b0" stroke-width="0.7"/>
      <path id="Tracé_31327" data-name="Tracé 31327" d="M20.953,5.071c-.143.164-.284.436-.508.557a.638.638,0,0,1-.854-.231c-.468-.732-.913-1.481-1.325-2.245a.737.737,0,0,1,1.261-.757c.455.723.874,1.468,1.3,2.208a2.378,2.378,0,0,1,.126.469" transform="translate(-0.358 -0.041)" fill="#1cb0b0" stroke="#1cb0b0" stroke-width="0.7"/>
      <path id="Tracé_31328" data-name="Tracé 31328" d="M41.343,17.249c-.413,0-.824.012-1.238,0a.725.725,0,0,1-.054-1.448q1.306-.041,2.614,0a.724.724,0,0,1-.036,1.447c-.427.016-.857,0-1.285,0" transform="translate(-0.775 -0.311)" fill="#1cb0b0" stroke="#1cb0b0" stroke-width="0.7"/>
      <path id="Tracé_31329" data-name="Tracé 31329" d="M27.51,2c0,.411.006.822,0,1.233a.654.654,0,0,1-.631.7.694.694,0,0,1-.786-.6c-.04-.926-.04-1.856,0-2.781.019-.418.366-.581.759-.556a.624.624,0,0,1,.65.632c.019.457,0,.914,0,1.371h.006" transform="translate(-0.513 0)" fill="#1cb0b0" stroke="#1cb0b0" stroke-width="0.7"/>
      <path id="Tracé_31330" data-name="Tracé 31330" d="M33.545,5.686c-.633-.019-.961-.5-.734-.96.394-.792.829-1.566,1.279-2.327a.7.7,0,0,1,.967-.234.718.718,0,0,1,.312.984c-.4.736-.822,1.467-1.282,2.168-.131.2-.428.3-.541.369" transform="translate(-0.644 -0.041)" fill="#1cb0b0" stroke="#1cb0b0" stroke-width="0.7"/>
    </g>
  </g>
</svg>
