<?xml version="1.0" encoding="utf-8"?>
<!-- Generator: Adobe Illustrator 27.3.1, SVG Export Plug-In . SVG Version: 6.00 Build 0)  -->
<svg version="1.1" id="Calque_1" xmlns="http://www.w3.org/2000/svg" xmlns:xlink="http://www.w3.org/1999/xlink" x="0px" y="0px"
	 viewBox="0 0 124.3 124.3" style="enable-background:new 0 0 124.3 124.3;" xml:space="preserve">
<style type="text/css">
	.st0{fill:#FFFFFF;}
	.st1{fill:url(#SVGID_1_);}
</style>
<circle class="st0" cx="62.8" cy="63.6" r="54.2"/>
<linearGradient id="SVGID_1_" gradientUnits="userSpaceOnUse" x1="2.109015e-03" y1="61.8666" x2="124.2746" y2="61.8666" gradientTransform="matrix(1 0 0 -1 0 124)">
	<stop  offset="0" style="stop-color:#243E90"/>
	<stop  offset="0" style="stop-color:#243E90"/>
	<stop  offset="1" style="stop-color:#4598D3"/>
	<stop  offset="1" style="stop-color:#6DC5D6"/>
</linearGradient>
<path class="st1" d="M79.5,2.3c-47.7-12.9-90,29.5-77.1,77.1c5.6,20.6,21.9,36.9,42.5,42.4c47.7,12.9,90-29.5,77.1-77.1
	C116.4,24.2,100,7.9,79.5,2.3L79.5,2.3z M40.4,99.7c-9.9,4.3-19.4-5.2-15-15c1-2.3,2.9-4.2,5.1-5.2c9.9-4.3,19.4,5.2,15,15
	C44.6,96.8,42.7,98.7,40.4,99.7z M97.7,94c0,0,0,0.1,0,0.2c0,0.4-0.1,0.7-0.1,1.1c0,0.1,0,0.2,0,0.3c-0.3,1.4-1,2.8-2.2,3.9
	c-1.4,1.3-3.2,2-5,2c-2,0-3.9-0.8-5.4-2.3L26,35.9c-1.6-1.8-2.3-4.3-1.6-6.5c2-6.1,8.9-7.1,12.6-3.2l43,46.1c1,1.1,2.9,0.4,2.9-1.2
	V30.8c0-2.3,1.2-4.5,3.2-5.7c5.7-3.2,11.5,0.8,11.5,6.2C97.7,31.3,97.7,94,97.7,94z"/>
</svg>
