<svg xmlns="http://www.w3.org/2000/svg" width="35" height="35" viewBox="0 0 49.977 49.977">
  <path id="trophee-etoile" d="M30.8,32.645c13.409-.067,18.181-7.169,18.181-13.258a7.15,7.15,0,0,0-5.64-6.977c.278-.79.518-1.514.682-2.063a7.935,7.935,0,0,0-1.28-7.059A8.126,8.126,0,0,0,36.179,0H12.8A8.126,8.126,0,0,0,6.236,3.29a7.931,7.931,0,0,0-1.277,7.057c.163.549.4,1.273.682,2.063A7.15,7.15,0,0,0,0,19.387c0,6.089,4.773,13.191,18.181,13.258a10.322,10.322,0,0,1,.186,1.884v6.285A3.843,3.843,0,0,1,14.285,44.9H12.244a2.041,2.041,0,1,0,0,4.081H36.732a2.041,2.041,0,1,0,0-4.081H34.708a3.847,3.847,0,0,1-4.1-4.081V34.528A10.322,10.322,0,0,1,30.8,32.645ZM41.834,16.326A3.065,3.065,0,0,1,44.9,19.387c0,4.151-3.283,8.565-12.318,9.122a9.975,9.975,0,0,1,1.555-1.675,30.918,30.918,0,0,0,7.606-10.528c.035,0,.063.02.1.02ZM4.081,19.387a3.065,3.065,0,0,1,3.061-3.061c.035,0,.063-.018.1-.02a30.91,30.91,0,0,0,7.606,10.528A9.9,9.9,0,0,1,16.4,28.508c-9.034-.557-12.318-4.971-12.318-9.122ZM21.454,44.9a8.347,8.347,0,0,0,.994-4.081V34.528a14.142,14.142,0,0,0-4.961-10.8c-3.61-3.069-6.83-8.5-8.614-14.534a3.878,3.878,0,0,1,.635-3.457A4.07,4.07,0,0,1,12.8,4.081h23.38a4.073,4.073,0,0,1,3.29,1.651A3.9,3.9,0,0,1,40.1,9.189c-1.786,6.034-5.006,11.467-8.614,14.536a14.139,14.139,0,0,0-4.961,10.8v6.285a8.325,8.325,0,0,0,.994,4.081H21.454ZM19.98,19.923a1.459,1.459,0,0,1-.551-1.677l1.059-3.277L17.7,12.928a1.5,1.5,0,0,1,.884-2.706h3.43l1.043-3.251a1.506,1.506,0,0,1,2.857,0l1.041,3.251h3.43a1.5,1.5,0,0,1,.884,2.708l-2.788,2.041,1.059,3.277a1.5,1.5,0,0,1-2.314,1.669L24.486,17.9l-2.743,2.014a1.485,1.485,0,0,1-1.763.008Z" transform="translate(0.5 0.5)" fill="#1cb0b0" />
</svg>
