<svg xmlns="http://www.w3.org/2000/svg" width="45.049" height="52" viewBox="0 0 45.049 52">
  <g id="Groupe_7083" data-name="Groupe 7083" transform="translate(20431.049 16563)">
    <g id="Ellipse_1144" data-name="Ellipse 1144" transform="translate(-20429 -16563)" fill="none" stroke="#c82773" stroke-width="3">
      <circle cx="20.5" cy="20.5" r="20.5" stroke="none"/>
      <circle cx="20.5" cy="20.5" r="19" fill="none"/>
    </g>
    <g id="Ellipse_1145" data-name="Ellipse 1145" transform="translate(-20418 -16552)" fill="none" stroke="#c82773" stroke-width="2">
      <circle cx="9.5" cy="9.5" r="9.5" stroke="none"/>
      <circle cx="9.5" cy="9.5" r="8.5" fill="none"/>
    </g>
    <circle id="Ellipse_1146" data-name="Ellipse 1146" cx="3.5" cy="3.5" r="3.5" transform="translate(-20412 -16546)" fill="#c82773"/>
    <g id="Tracé_31267" data-name="Tracé 31267" transform="translate(-20431 -16528)" fill="none">
      <path d="M9,0s8.529,3.355,13.51,3.355S36,0,36,0c1.832.051,3.285.809,5,4l4,9c0,2.209-.791,4-3,4H4c-2.209,0-4.406-.631-4-4L4,4C5.15,1.867,6.791,0,9,0Z" stroke="none"/>
      <path d="M 36.4018440246582 3.05702018737793 C 35.52701187133789 3.383164405822754 33.91135025024414 3.963540077209473 31.99801635742188 4.547200202941895 C 28.06459426879883 5.747079849243164 24.87228584289551 6.355469703674316 22.509765625 6.355469703674316 C 20.14774513244629 6.355469703674316 16.9526252746582 5.747220039367676 13.01316452026367 4.547630310058594 C 11.13369750976562 3.975318908691406 9.540557861328125 3.406182289123535 8.653079986572266 3.076898574829102 C 8.065578460693359 3.321575164794922 7.349349975585938 4.136591911315918 6.692272186279297 5.329017639160156 L 2.951202392578125 13.74642181396484 C 2.950653076171875 13.80746555328369 2.952407836914062 13.85892295837402 2.955280303955078 13.90159130096436 C 3.125263214111328 13.94591045379639 3.446178436279297 14 3.999996185302734 14 L 41.88942718505859 14 C 41.91836166381836 13.89767646789551 41.94839859008789 13.75505638122559 41.96984481811523 13.56879711151123 L 38.30594635009766 5.325028419494629 C 37.59118270874023 4.013897895812988 37.07406616210938 3.465781211853027 36.76364517211914 3.236920356750488 C 36.66450119018555 3.163818359375 36.56542587280273 3.100290298461914 36.4018440246582 3.05702018737793 M 8.999996185302734 0 C 8.999996185302734 0 17.5289249420166 3.355469703674316 22.509765625 3.355469703674316 C 27.49060440063477 3.355469703674316 35.99999618530273 0 35.99999618530273 0 C 37.83203506469727 0.05077934265136719 39.28515625 0.8085899353027344 40.99999618530273 4 L 44.99999618530273 13 C 44.99999618530273 15.20913982391357 44.20913314819336 17 41.99999618530273 17 L 3.999996185302734 17 C 1.790855407714844 17 -0.4062538146972656 16.369140625 -3.814697265625e-06 13 L 3.999996185302734 4 C 5.150386810302734 1.867190361022949 6.790866851806641 0 8.999996185302734 0 Z" stroke="none" fill="#c82773"/>
    </g>
  </g>
</svg>
