<svg xmlns="http://www.w3.org/2000/svg" width="23.362" height="25.919" viewBox="0 0 23.362 25.919">
  <path id="Tracé_31355" data-name="Tracé 31355" d="M12.036,0A3.4,3.4,0,0,1,13.33.527a2.877,2.877,0,0,1,1.155,2.887c.061.028.126.06.193.089a8.544,8.544,0,0,1,5.274,6.864A8.131,8.131,0,0,1,20.02,11.6c.007,1.535,0,3.07,0,4.606,0,.41.068.484.471.517a3,3,0,0,1,2.819,2.4,2.918,2.918,0,0,1-2.83,3.448c-1.591.014-3.182,0-4.773,0H15.5a12.069,12.069,0,0,1-.585,1.455,3.6,3.6,0,0,1-2.641,1.84.9.9,0,0,0-.138.048h-.859a7.849,7.849,0,0,1-.9-.243,3.7,3.7,0,0,1-2.393-2.869c-.01-.05-.019-.1-.031-.148a.624.624,0,0,0-.036-.082H7.651c-1.591,0-3.181.007-4.772,0A2.909,2.909,0,0,1,.193,20.69a2.861,2.861,0,0,1,.738-3.149,3.07,3.07,0,0,1,1.961-.818c.369-.021.448-.113.449-.487,0-1.644-.033-3.289.007-4.933A8.194,8.194,0,0,1,8.365,3.621c.158-.076.387-.1.467-.218s.01-.338.007-.513A2.84,2.84,0,0,1,11.188.047.969.969,0,0,0,11.328,0Zm-.364,20.906h8.537c.1,0,.2,0,.3,0a1.243,1.243,0,0,0,1.181-1.271,1.3,1.3,0,0,0-1.338-1.24,2,2,0,0,1-2-2.146c0-1.561,0-3.121,0-4.682A7.191,7.191,0,0,0,18,9.275,6.642,6.642,0,0,0,5.013,11.211c-.015,1.712,0,3.425-.005,5.137a1.992,1.992,0,0,1-1.6,2c-.221.047-.453.039-.676.078a1.243,1.243,0,0,0-.937,1.768,1.271,1.271,0,0,0,1.239.713q4.319,0,8.638,0m-2.006,1.68a2.055,2.055,0,0,0,2.1,1.66,2.034,2.034,0,0,0,1.926-1.66Zm.85-19.617h2.332a1.1,1.1,0,0,0-.489-1.078,1.1,1.1,0,0,0-1.281-.045,1.12,1.12,0,0,0-.562,1.123" transform="translate(0)" fill="#585858"/>
</svg>
