<svg xmlns="http://www.w3.org/2000/svg" width="21.785" height="24.039" viewBox="0 0 21.785 24.039">
  <path id="cloche_4_" data-name="cloche (4)" d="M22.587,13.682l-1.9-6.846a9.335,9.335,0,0,0-18.106.475L1.105,13.936A5.008,5.008,0,0,0,5.994,20.03H7.109a5.007,5.007,0,0,0,9.815,0h.839a5.007,5.007,0,0,0,4.825-6.348ZM12.017,22.033a3,3,0,0,1-2.82-2h5.64a3,3,0,0,1-2.82,2Zm8.138-5.193a2.981,2.981,0,0,1-2.393,1.187H5.994a3,3,0,0,1-2.932-3.656L4.533,7.745a7.332,7.332,0,0,1,14.221-.373l1.9,6.846a2.981,2.981,0,0,1-.5,2.622Z" transform="translate(-0.986 -0.002)" fill="#686e74"/>
</svg>
