<svg xmlns="http://www.w3.org/2000/svg" width="48.099" height="56.569" viewBox="0 0 48.099 56.569">
  <g id="Groupe_7112" data-name="Groupe 7112" transform="translate(-265.136 -299.551)">
    <g id="Rectangle_46" data-name="Rectangle 46" transform="translate(265.136 299.551)" fill="none" stroke="#c51869" stroke-width="2.3">
      <rect width="40.909" height="50.534" rx="7" stroke="none"/>
      <rect x="1.15" y="1.15" width="38.609" height="48.234" rx="5.85" fill="none"/>
    </g>
    <g id="Ellipse_9" data-name="Ellipse 9" transform="translate(271.283 307.394)" fill="none" stroke="#c51869" stroke-width="2">
      <ellipse cx="5.882" cy="5.882" rx="5.882" ry="5.882" stroke="none"/>
      <ellipse cx="5.882" cy="5.882" rx="4.882" ry="4.882" fill="none"/>
    </g>
    <g id="Groupe_21" data-name="Groupe 21" transform="translate(294.926 335.13) rotate(-90)">
      <path id="Tracé_880" data-name="Tracé 880" d="M0,6A10.113,10.113,0,0,0,.941,9.68a8.065,8.065,0,0,1,.819,3.027,6.966,6.966,0,0,1-.666,3.179,1.956,1.956,0,0,0-.056,1.635,1.059,1.059,0,0,0,2.038.031A10.4,10.4,0,0,0,3.5,9.426c-.146-.414-.315-.816-.492-1.209a6.815,6.815,0,0,1-.029-5.728A2.938,2.938,0,0,0,3.213,1.3,1.3,1.3,0,0,0,2.327.041,1.051,1.051,0,0,0,1.068.7,11.429,11.429,0,0,0,0,6Z" transform="translate(11.839 0.001)" fill="#c51869"/>
      <path id="Tracé_881" data-name="Tracé 881" d="M4.137,12.734a10.428,10.428,0,0,0-.959-4.149,7.979,7.979,0,0,1-.806-2.977,7.331,7.331,0,0,1,.691-3.269C3.511,1.3,3.077.136,2.2.011A1.1,1.1,0,0,0,1.026.8,10.462,10.462,0,0,0,.915,9.6a8.849,8.849,0,0,1,.831,2.811,7.149,7.149,0,0,1-.66,3.526,1.742,1.742,0,0,0,.53,2.247A1.038,1.038,0,0,0,3.062,17.6,10.949,10.949,0,0,0,4.137,12.734Z" transform="translate(0 0)" fill="#c51869"/>
      <path id="Tracé_882" data-name="Tracé 882" d="M4.141,12.945a11.776,11.776,0,0,0-.922-4.293,13.482,13.482,0,0,1-.778-2.462A6.384,6.384,0,0,1,2.984,2.5a3.078,3.078,0,0,0,.242-1.091A1.352,1.352,0,0,0,2.34.043a1.078,1.078,0,0,0-1.3.731A10.571,10.571,0,0,0,.868,9.533a14.24,14.24,0,0,1,.816,2.5,6.14,6.14,0,0,1-.494,3.65,4.121,4.121,0,0,0-.252.682,1.688,1.688,0,0,0,.651,1.81,1.039,1.039,0,0,0,1.476-.589A10.852,10.852,0,0,0,4.141,12.945Z" transform="translate(5.918 0)" fill="#c51869"/>
    </g>
    <line id="Ligne_7" data-name="Ligne 7" x2="28.759" transform="translate(271.403 354.97)" fill="none" stroke="#c51869" stroke-linecap="round" stroke-width="2.3"/>
  </g>
</svg>
