<svg xmlns="http://www.w3.org/2000/svg" width="32.327" height="38.397" viewBox="0 0 32.327 38.397">
  <g id="Groupe_7592" data-name="Groupe 7592" transform="translate(-265.136 -299.551)">
    <g id="Rectangle_46" data-name="Rectangle 46" transform="translate(265.136 299.551)" fill="none" stroke="#c82773" stroke-width="2.3">
      <rect width="27.494" height="33.964" rx="7" stroke="none"/>
      <rect x="1.15" y="1.15" width="25.194" height="31.664" rx="5.85" fill="none"/>
    </g>
    <g id="Ellipse_9" data-name="Ellipse 9" transform="translate(269.267 304.823)" fill="none" stroke="#c82773" stroke-width="2.5">
      <ellipse cx="3.954" cy="3.954" rx="3.954" ry="3.954" stroke="none"/>
      <ellipse cx="3.954" cy="3.954" rx="2.704" ry="2.704" fill="none"/>
    </g>
    <g id="Groupe_21" data-name="Groupe 21" transform="translate(285.158 323.464) rotate(-90)">
      <path id="Tracé_880" data-name="Tracé 880" d="M0,4.031A6.8,6.8,0,0,0,.632,6.506a5.42,5.42,0,0,1,.55,2.035,4.682,4.682,0,0,1-.448,2.137,1.315,1.315,0,0,0-.038,1.1.712.712,0,0,0,1.369.021,6.988,6.988,0,0,0,.288-5.462c-.1-.278-.212-.548-.33-.813A4.581,4.581,0,0,1,2,1.672a1.974,1.974,0,0,0,.155-.8.877.877,0,0,0-.6-.844A.706.706,0,0,0,.718.471,7.681,7.681,0,0,0,0,4.031Z" transform="translate(7.957 0.001)" fill="#c82773"/>
      <path id="Tracé_881" data-name="Tracé 881" d="M2.781,8.558A7.009,7.009,0,0,0,2.136,5.77a5.362,5.362,0,0,1-.542-2,4.927,4.927,0,0,1,.465-2.2c.3-.7.009-1.48-.579-1.564A.74.74,0,0,0,.69.54,7.031,7.031,0,0,0,.615,6.453a5.947,5.947,0,0,1,.558,1.889,4.8,4.8,0,0,1-.443,2.37,1.171,1.171,0,0,0,.357,1.51.7.7,0,0,0,.971-.394A7.359,7.359,0,0,0,2.781,8.558Z" transform="translate(0 0)" fill="#c82773"/>
      <path id="Tracé_882" data-name="Tracé 882" d="M2.783,8.7a7.915,7.915,0,0,0-.62-2.885A9.061,9.061,0,0,1,1.64,4.16a4.29,4.29,0,0,1,.365-2.481A2.069,2.069,0,0,0,2.168.945a.908.908,0,0,0-.6-.916A.725.725,0,0,0,.7.52,7.1,7.1,0,0,0,.583,6.407a9.57,9.57,0,0,1,.548,1.679A4.127,4.127,0,0,1,.8,10.54,2.77,2.77,0,0,0,.63,11a1.135,1.135,0,0,0,.438,1.216.7.7,0,0,0,.992-.4A7.293,7.293,0,0,0,2.783,8.7Z" transform="translate(3.978 0)" fill="#c82773"/>
    </g>
    <line id="Ligne_7" data-name="Ligne 7" x2="19.329" transform="translate(269.348 336.798)" fill="none" stroke="#c82773" stroke-linecap="round" stroke-width="2.3"/>
  </g>
</svg>
