<svg id="tri-des-applications" xmlns="http://www.w3.org/2000/svg" width="24.038" height="24.038" viewBox="0 0 24.038 24.038">
  <path id="Tracé_48530" data-name="Tracé 48530" d="M7.011,0h-3A4.006,4.006,0,0,0,0,4.006v3a4.006,4.006,0,0,0,4.006,4.006h3a4.006,4.006,0,0,0,4.006-4.006v-3A4.006,4.006,0,0,0,7.011,0Zm2,7.011a2,2,0,0,1-2,2h-3a2,2,0,0,1-2-2v-3a2,2,0,0,1,2-2h3a2,2,0,0,1,2,2Z" fill="#fff"/>
  <path id="Tracé_48531" data-name="Tracé 48531" d="M7.011,13h-3A4.006,4.006,0,0,0,0,17.006v3a4.006,4.006,0,0,0,4.006,4.006h3a4.006,4.006,0,0,0,4.006-4.006v-3A4.006,4.006,0,0,0,7.011,13Zm2,7.011a2,2,0,0,1-2,2h-3a2,2,0,0,1-2-2v-3a2,2,0,0,1,2-2h3a2,2,0,0,1,2,2Z" transform="translate(0 0.021)" fill="#fff"/>
  <path id="Tracé_48532" data-name="Tracé 48532" d="M22.306,19.079l-2.3,2.294V2.637l2.3,2.294a1,1,0,1,0,1.416-1.417L21.131.926a3,3,0,0,0-4.247,0L14.293,3.513A1,1,0,1,0,15.71,4.931l2.3-2.294V21.373l-2.3-2.294A1,1,0,1,0,14.293,20.5l2.591,2.587a3,3,0,0,0,4.247,0L23.722,20.5a1,1,0,0,0-1.416-1.417Z" transform="translate(0.022 0)" fill="#fff"/>
</svg>
