<svg id="Groupe_6287" data-name="Groupe 6287" xmlns="http://www.w3.org/2000/svg" xmlns:xlink="http://www.w3.org/1999/xlink" width="24.805" height="24.815" viewBox="0 0 24.805 24.815">
  <defs>
    <clipPath id="clip-path">
      <rect id="Rectangle_9271" data-name="Rectangle 9271" width="24.805" height="24.815" fill="#d2d2d2"/>
    </clipPath>
  </defs>
  <g id="Groupe_6286" data-name="Groupe 6286" clip-path="url(#clip-path)">
    <path id="Tracé_30922" data-name="Tracé 30922" d="M7.359,20.5,5.61,22c-.495.425-.74.416-1.2-.045q-.8-.8-1.605-1.605a.664.664,0,0,1-.036-1.078c.461-.541.919-1.084,1.39-1.616a.282.282,0,0,0,.046-.4,8.67,8.67,0,0,1-1.028-2.465.277.277,0,0,0-.293-.251c-.745-.052-1.491-.108-2.235-.174a.62.62,0,0,1-.646-.7q0-1.246,0-2.492a.619.619,0,0,1,.637-.71q1.089-.1,2.18-.167a.341.341,0,0,0,.372-.3A9.1,9.1,0,0,1,4.318,7.359L2.9,5.7c-.06-.07-.122-.139-.181-.21a.633.633,0,0,1,.039-.975q.877-.885,1.762-1.762a.622.622,0,0,1,.954-.045c.628.528,1.248,1.066,1.818,1.554.793-.332,1.537-.673,2.3-.956.657-.243.665-.214.715-.908.044-.6.091-1.2.148-1.793a.606.606,0,0,1,.658-.6C11.975,0,12.834,0,13.692.005a.594.594,0,0,1,.539.95,6.559,6.559,0,0,0-.355,6.107c.031.073.059.146.105.261a5.311,5.311,0,0,0-4.3.523,5.166,5.166,0,0,0-2.2,2.555,5.32,5.32,0,0,0,8.438,6,1.3,1.3,0,0,1,.028.183c0,1.486,0,2.972.005,4.458a.253.253,0,0,1-.208.293c-.327.094-.646.221-.975.3a.261.261,0,0,0-.236.276c-.053.745-.108,1.491-.174,2.235a.627.627,0,0,1-.716.662q-1.246,0-2.492,0a.614.614,0,0,1-.7-.622q-.1-1.089-.167-2.18a.356.356,0,0,0-.316-.392A8.965,8.965,0,0,1,7.359,20.5" transform="translate(0 0)" fill="#d2d2d2"/>
    <path id="Tracé_30923" data-name="Tracé 30923" d="M206.764,17.12c0-2.279,0-4.558.005-6.838a.4.4,0,0,0-.229-.411,4.859,4.859,0,0,1-.146-8.325,1.546,1.546,0,0,1,.318-.112,2.018,2.018,0,0,1,.049.315c0,1.55.006,3.1,0,4.651a.3.3,0,0,0,.228.343c.611.232,1.214.487,1.825.719a.513.513,0,0,0,.336,0c.611-.233,1.214-.488,1.825-.72A.3.3,0,0,0,211.2,6.4c-.008-1.559-.006-3.119,0-4.678a1.644,1.644,0,0,1,.051-.286,1.4,1.4,0,0,1,.3.1,4.858,4.858,0,0,1-.08,8.311.487.487,0,0,0-.273.5q.009,6.755,0,13.509a2.214,2.214,0,1,1-4.426.08c-.011-2.27,0-4.54,0-6.81" transform="translate(-189.04 -1.327)" fill="#d2d2d2"/>
  </g>
</svg>
