<svg xmlns="http://www.w3.org/2000/svg" version="1.1" xmlns:xlink="http://www.w3.org/1999/xlink" width="18" height="18" x="0" y="0" viewBox="0 0 64 64" style="enable-background:new 0 0 512 512" xml:space="preserve" class=""><g><path d="M58.111 5.888a6.453 6.453 0 0 0-9.116 0l-37.6 37.599a15.158 15.158 0 0 0-3.162 4.614l-4.071 9.215a1.924 1.924 0 0 0 .396 2.125 1.918 1.918 0 0 0 2.124.397l9.217-4.072a15.175 15.175 0 0 0 4.613-3.161l32.509-32.509c.013-.012.031-.016.044-.029s.017-.03.029-.044l5.017-5.017a6.454 6.454 0 0 0 0-9.118zM6.084 57.916l1.966-4.451 2.485 2.485zM19.1 51.19a13.18 13.18 0 0 1-4.008 2.746l-2.595 1.146-3.58-3.579 1.146-2.594a13.182 13.182 0 0 1 2.747-4.008l31.839-31.838 6.289 6.289zm37.598-37.598-4.346 4.346-6.289-6.289 4.346-4.346A4.413 4.413 0 0 1 53.554 6c1.188 0 2.304.462 3.144 1.302a4.454 4.454 0 0 1 0 6.29z" fill="#163e5f" opacity="1" data-original="#000000" class=""></path></g></svg>