<svg xmlns="http://www.w3.org/2000/svg" width="17" height="17" viewBox="0 0 17 17">
  <path id="Color_Off" data-name="Color=Off" d="M9.893,3.821V2h1.214V3.821Zm3.421.591.911-1.577,1.052.607L14.365,5.02ZM10.5,14.75A4.25,4.25,0,1,0,6.25,10.5,4.25,4.25,0,0,0,10.5,14.75Zm0,1.214A5.464,5.464,0,1,0,5.036,10.5,5.464,5.464,0,0,0,10.5,15.964Zm6.679-6.071H19v1.214H17.179Zm.379-4.169-1.577.911.607,1.052,1.577-.911ZM5.724,3.442,6.635,5.02l1.052-.607L6.776,2.835ZM4.413,7.686,2.835,6.776l.607-1.052,1.577.911Zm5.48,9.492V19h1.214V17.179ZM3.821,9.893H2v1.214H3.821Zm-.986,4.331,1.577-.911.607,1.052-1.577.911Zm3.8,1.756-.911,1.577,1.052.607.911-1.577Zm7.589,2.184-.911-1.577,1.052-.607.911,1.577Zm1.756-3.8,1.577.911.607-1.052-1.577-.911Z" transform="translate(-2 -2)" fill="#e07256" fill-rule="evenodd"/>
</svg>
