<svg id="Groupe_7593" data-name="Groupe 7593" xmlns="http://www.w3.org/2000/svg" width="32.137" height="36.732" viewBox="0 0 32.137 36.732">
  <path id="Tracé_7729" data-name="Tracé 7729" d="M111.029,176.732H84.915a7.412,7.412,0,0,1-1.079-.348,3.326,3.326,0,0,1-1.933-3.211c0-4.959.013-9.918-.009-14.877a6.138,6.138,0,0,1,1.9-4.587q6.547-6.508,13.063-13.046a9.5,9.5,0,0,1,.825-.663h.574a5.619,5.619,0,0,1,.614.469q6.7,6.714,13.4,13.437a5.7,5.7,0,0,1,1.754,4.145q.016,7.586,0,15.172a3.206,3.206,0,0,1-1.378,2.81A9.1,9.1,0,0,1,111.029,176.732ZM99.06,174.58h11.269c1.1,0,1.547-.44,1.547-1.538q0-7.353,0-14.707a4.057,4.057,0,0,0-1.239-3.02q-6.2-6.2-12.388-12.421c-.091-.091-.187-.177-.29-.275-.079.071-.143.122-.2.18q-6.29,6.29-12.58,12.581a3.753,3.753,0,0,0-1.13,2.772q.006,7.5,0,14.993a1.263,1.263,0,0,0,1.429,1.434h11.39v-2.453h-.4c-1.2,0-2.391.007-3.587,0a5.032,5.032,0,0,1-5.051-3.915,14.711,14.711,0,0,1-.169-2.817,1.076,1.076,0,0,1,1.179-1.189q.771-.018,1.542,0a5.11,5.11,0,0,1,5.191,5.038c.012.234,0,.468,0,.7h1.281v-9.329a.694.694,0,0,0-.1-.02c-.191,0-.383,0-.574-.005a5.038,5.038,0,0,1-4.375-2.556c-.867-1.427-.74-3.008-.631-4.569a.821.821,0,0,1,.812-.748,14.464,14.464,0,0,1,3.067.124,4.994,4.994,0,0,1,3.979,5.028c.013,2.343,0,4.687,0,7.03v.429h1.305c0-.287-.009-.549,0-.809a5.024,5.024,0,0,1,3.985-4.772,15.834,15.834,0,0,1,2.747-.151,1.06,1.06,0,0,1,1.17,1.153c.009.645.011,1.292-.015,1.936a5.05,5.05,0,0,1-4.772,4.794c-1.325.051-2.654.021-3.981.028H99.06ZM93.4,169.937a3.038,3.038,0,0,0-3.551-3.533A3.042,3.042,0,0,0,93.4,169.937Zm3.46-11.523a3.041,3.041,0,0,0-3.545-3.535A3.037,3.037,0,0,0,96.863,158.414Zm9.209,3.36a3.041,3.041,0,0,0-3.533,3.55A3.038,3.038,0,0,0,106.072,161.773Z" transform="translate(-81.894 -140)" fill="#1cb1b1"/>
</svg>
