<svg xmlns="http://www.w3.org/2000/svg" width="43.819" height="50.013" viewBox="0 0 43.819 50.013">
  <g id="Groupe_7109" data-name="Groupe 7109" transform="translate(0.25 0.25)">
    <path id="Tracé_7729" data-name="Tracé 7729" d="M121.167,189.513h-35.2a9.99,9.99,0,0,1-1.454-.469,4.483,4.483,0,0,1-2.605-4.329c-.006-6.685.017-13.369-.012-20.054a8.274,8.274,0,0,1,2.564-6.183q8.825-8.772,17.609-17.586a12.807,12.807,0,0,1,1.113-.894h.774a7.574,7.574,0,0,1,.827.633q9.035,9.051,18.059,18.112a7.681,7.681,0,0,1,2.364,5.587q.022,10.226,0,20.452a4.322,4.322,0,0,1-1.857,3.787A12.264,12.264,0,0,1,121.167,189.513Zm-16.134-2.9h15.19c1.488,0,2.085-.593,2.085-2.073q0-9.912.006-19.824a5.468,5.468,0,0,0-1.67-4.071q-8.364-8.357-16.7-16.743c-.123-.123-.252-.239-.391-.371-.107.1-.193.165-.271.242Q94.8,152.251,86.326,160.73a5.059,5.059,0,0,0-1.523,3.737q.008,10.105,0,20.211a1.7,1.7,0,0,0,1.926,1.933q7.422,0,14.844,0h.51v-3.307h-.538c-1.612,0-3.223.01-4.835,0a6.782,6.782,0,0,1-6.808-5.277,19.83,19.83,0,0,1-.228-3.8,1.451,1.451,0,0,1,1.589-1.6q1.039-.025,2.079,0a6.888,6.888,0,0,1,7,6.791c.016.315,0,.631,0,.948h1.727V167.789a.933.933,0,0,0-.133-.027c-.258,0-.516,0-.774-.007a6.792,6.792,0,0,1-5.9-3.445c-1.168-1.924-1-4.055-.851-6.159a1.107,1.107,0,0,1,1.094-1.008,19.5,19.5,0,0,1,4.134.168,6.732,6.732,0,0,1,5.363,6.778c.017,3.159,0,6.318,0,9.477v.578h1.759c0-.387-.012-.74,0-1.091a6.772,6.772,0,0,1,5.372-6.433,21.343,21.343,0,0,1,3.7-.2,1.429,1.429,0,0,1,1.577,1.555c.012.87.014,1.741-.02,2.61a6.807,6.807,0,0,1-6.433,6.462c-1.786.069-3.577.029-5.366.038h-.571Zm-7.625-6.258a4.1,4.1,0,0,0-4.786-4.762A4.1,4.1,0,0,0,97.407,180.354Zm4.664-15.533c.321-3.021-1.967-5.285-4.778-4.765A4.093,4.093,0,0,0,102.071,164.821Zm12.413,4.529a4.1,4.1,0,0,0-4.762,4.785A4.1,4.1,0,0,0,114.485,169.35Z" transform="translate(-81.894 -140)" fill="#1cb0b0" stroke="#fff" stroke-width="0.5"/>
  </g>
</svg>
