<svg xmlns="http://www.w3.org/2000/svg" width="24" height="24.004" viewBox="0 0 24 24.004">
  <path id="messages-question" d="M19,4H17.9A5.009,5.009,0,0,0,13,0H5A5.006,5.006,0,0,0,0,5V17.854a2.148,2.148,0,0,0,3.339,1.789l2.95-1.967A5.009,5.009,0,0,0,11,21h5.7l3.964,2.644A2.15,2.15,0,0,0,24,21.854V9a5.006,5.006,0,0,0-5-5ZM2.23,17.979a.14.14,0,0,1-.152.007A.138.138,0,0,1,2,17.855V5A3,3,0,0,1,5,2h8a3,3,0,0,1,3,3v7a3,3,0,0,1-3,3H7a1.071,1.071,0,0,0-.565.175l-4.2,2.8ZM22,21.855a.139.139,0,0,1-.078.131.133.133,0,0,1-.152-.007l-4.215-2.811A1,1,0,0,0,17,19H11a3,3,0,0,1-2.828-2H13a5.006,5.006,0,0,0,5-5V6h1a3,3,0,0,1,3,3V21.854Z" fill="#c3cad6"/>
</svg>
