<svg xmlns="http://www.w3.org/2000/svg" width="24.039" height="24.039" viewBox="0 0 24.039 24.039">
  <g id="parametres-curseurs" transform="translate(0 0)">
    <path id="Tracé_48524" data-name="Tracé 48524" d="M1,4.758h2.74a3.734,3.734,0,0,0,7.207,0H23.037a1,1,0,1,0,0-2H10.949a3.734,3.734,0,0,0-7.207,0H1a1,1,0,1,0,0,2ZM7.345,2A1.753,1.753,0,1,1,5.592,3.756,1.753,1.753,0,0,1,7.345,2Z" transform="translate(0 0)" fill="#fff"/>
    <path id="Tracé_48525" data-name="Tracé 48525" d="M23.037,11H20.3a3.733,3.733,0,0,0-7.206,0H1a1,1,0,1,0,0,2h12.09a3.733,3.733,0,0,0,7.206,0h2.74a1,1,0,1,0,0-2Zm-6.343,2.754a1.753,1.753,0,1,1,1.753-1.753,1.753,1.753,0,0,1-1.753,1.753Z" transform="translate(0 0.013)" fill="#fff"/>
    <path id="Tracé_48526" data-name="Tracé 48526" d="M23.037,19.254H10.949a3.734,3.734,0,0,0-7.207,0H1a1,1,0,1,0,0,2h2.74a3.734,3.734,0,0,0,7.207,0H23.037a1,1,0,1,0,0-2ZM7.345,22.009A1.753,1.753,0,1,1,9.1,20.256a1.753,1.753,0,0,1-1.753,1.753Z" transform="translate(0 0.027)" fill="#fff"/>
  </g>
</svg>
