<svg xmlns="http://www.w3.org/2000/svg" width="12" height="16" viewBox="0 0 12 16">
  <path id="Color_Off-8" data-name="Color=Off-8" d="M17.667,14.909c0,1.878-1.876,3.757-4.667,3.757s-4.667-1.879-4.667-3.757c0-1.948,1.267-4.374,2.756-6.486.673-.955,1.349-1.786,1.877-2.4C13.505,6.685,14.2,7.586,14.9,8.6a23.6,23.6,0,0,1,1.952,3.354A7.524,7.524,0,0,1,17.667,14.909ZM7,14.909c0-3.625,3.421-8,5.1-9.919C12.64,4.366,13,4,13,4s.345.381.869,1.02C15.532,7.045,19,11.658,19,14.909,19,17.721,16.314,20,13,20S7,17.721,7,14.909Zm3-2.243h1.434a4.424,4.424,0,0,0-.433,1.7A1.844,1.844,0,0,0,13,16v1.333a3.167,3.167,0,0,1-3.333-2.97A5.117,5.117,0,0,1,10,12.667Z" transform="translate(-7 -4)" fill="#5696e0" fill-rule="evenodd"/>
</svg>
