<svg xmlns="http://www.w3.org/2000/svg" width="47.104" height="47.104" viewBox="0 0 47.104 47.104">
  <path id="fi-rr-chart-pie" d="M23.552,0A23.552,23.552,0,1,0,47.1,23.552,23.552,23.552,0,0,0,23.552,0ZM42.341,17.9,24.857,21.3a9.7,9.7,0,0,1-.722-1.333L17.58,4.854A19.6,19.6,0,0,1,42.341,17.9ZM23.552,43.179a19.617,19.617,0,0,1-9.57-36.745l6.551,15.095a13.76,13.76,0,0,0,4.253,5.441l13.058,9.994A19.56,19.56,0,0,1,23.552,43.179Zm16.683-9.333-12.021-9.2,14.879-2.891c.053.589.09,1.191.09,1.8a19.48,19.48,0,0,1-2.948,10.294Z" fill="#8767b2"/>
</svg>
