<svg xmlns="http://www.w3.org/2000/svg" width="75" height="74" viewBox="0 0 75 74">
  <g id="Groupe_7611" data-name="Groupe 7611" transform="translate(4322.305 2281.518)">
    <ellipse id="Ellipse_1296" data-name="Ellipse 1296" cx="37.5" cy="37" rx="37.5" ry="37" transform="translate(-4322.305 -2281.518)" fill="#8767b2"/>
    <path id="fi-rr-chart-pie" d="M18.706,0A18.706,18.706,0,1,0,37.412,18.706,18.706,18.706,0,0,0,18.706,0ZM33.629,14.217l-13.886,2.7a7.7,7.7,0,0,1-.574-1.058l-5.207-12A15.568,15.568,0,0,1,33.629,14.217ZM18.706,34.295a15.581,15.581,0,0,1-7.6-29.185l5.2,11.989a10.929,10.929,0,0,0,3.378,4.321l10.371,7.938A15.535,15.535,0,0,1,18.706,34.295Zm13.25-7.412-9.548-7.308,11.818-2.3c.042.468.072.946.072,1.428a15.472,15.472,0,0,1-2.341,8.176Z" transform="translate(-4302.921 -2262.58)" fill="#fff"/>
  </g>
</svg>
