<svg xmlns="http://www.w3.org/2000/svg" version="1.1" xmlns:xlink="http://www.w3.org/1999/xlink" width="15" height="15" x="0" y="0" viewBox="0 0 448 448" style="enable-background:new 0 0 512 512" xml:space="preserve" class=""><g><path d="M224 448C100.535 448 0 347.465 0 224S100.535 0 224 0s224 100.535 224 224-100.535 224-224 224zm0-426.668C112.266 21.332 21.332 112.266 21.332 224S112.266 426.668 224 426.668 426.668 335.734 426.668 224 335.734 21.332 224 21.332zm0 0" fill="#c52665" opacity="1" data-original="#000000" class=""></path><path d="M202.668 324.398 92.934 214.668 108 199.602l94.668 94.664 137.598-137.598 15.066 15.066zm0 0" fill="#c52665" opacity="1" data-original="#000000" class=""></path></g></svg>