<svg xmlns="http://www.w3.org/2000/svg" xmlns:xlink="http://www.w3.org/1999/xlink" width="18.308" height="18.308" viewBox="0 0 18.308 18.308">
  <defs>
    <clipPath id="clip-path">
      <path id="Tracé_30554" data-name="Tracé 30554" d="M0,0H18.308V18.308H0Z" fill="#fff"/>
    </clipPath>
  </defs>
  <g id="windy" clip-path="url(#clip-path)">
    <path id="Tracé_30553" data-name="Tracé 30553" d="M13.732,11.68a3.051,3.051,0,1,1-2.877,4.068.763.763,0,0,1,1.4-.59l.034.082a1.526,1.526,0,1,0,1.552-2.031l-.114,0H3.815a.763.763,0,0,1-.088-1.52l.088-.005Zm1.526-7.628a3.051,3.051,0,0,1,.153,6.1l-.153,0H.763a.763.763,0,0,1-.088-1.52l.088-.005H15.257a1.526,1.526,0,1,0-1.394-2.145l-.044.111a.763.763,0,1,1-1.439-.508A3.051,3.051,0,0,1,15.257,4.051ZM7.629,1a3.051,3.051,0,0,1,.153,6.1l-.153,0H2.289A.763.763,0,0,1,2.2,5.582l.088-.005h5.34A1.526,1.526,0,1,0,6.234,3.432l-.044.111a.763.763,0,1,1-1.439-.508A3.051,3.051,0,0,1,7.629,1Z" transform="translate(0 -0.237)" fill="#fff" fill-rule="evenodd"/>
  </g>
</svg>
